<?xml version="1.0" encoding="UTF-8" standalone="no"?>
<!DOCTYPE svg PUBLIC "-//W3C//DTD SVG 1.1//EN" "http://www.w3.org/Graphics/SVG/1.1/DTD/svg11.dtd">
<svg width="100%" height="100%" viewBox="0 0 637 664" version="1.1" xmlns="http://www.w3.org/2000/svg" xmlns:xlink="http://www.w3.org/1999/xlink" xml:space="preserve" xmlns:serif="http://www.serif.com/" style="fill-rule:evenodd;clip-rule:evenodd;stroke-linecap:round;stroke-linejoin:round;stroke-miterlimit:1.5;">
    <g transform="matrix(1,0,0,1,0,-832)">
        <g id="Artboard-OCR-demo---web" serif:id="Artboard OCR demo - web" transform="matrix(0.286421,0,0,0.398082,0,832)">
            <rect x="0" y="0" width="2224" height="1668" style="fill:none;"/>
            <g transform="matrix(0.865195,0,0,0.805982,62.7186,30.3012)">
                <rect x="26" y="0" width="2397" height="1932" style="fill:none;stroke:rgb(95,158,167);stroke-width:13.95px;"/>
            </g>
            <g id="commander">
            </g>
            <g id="qr">
            </g>
            <g id="packages">
            </g>
            <g id="web" transform="matrix(0.176249,0,0,0.126811,1024.96,272.534)">
                <g transform="matrix(1,0,0,1,59.6437,-1030.43)">
                    <rect x="54.29" y="370.711" width="750" height="500" style="fill:rgb(249,167,119);fill-rule:nonzero;"/>
                </g>
                <g transform="matrix(1,0,0,1,59.6437,-1030.43)">
                    <path d="M204.29,270.711L54.29,270.711L54.29,350.711L284.29,350.711L204.29,270.711Z" style="fill:rgb(249,167,119);fill-rule:nonzero;"/>
                </g>
                <g transform="matrix(1,0,0,1,59.6437,-1030.43)">
                    <path d="M945.71,229.288L945.71,729.288L814.29,729.288L814.29,360.708L308.43,360.708L208.43,260.708L195.71,260.708L195.71,229.288L945.71,229.288Z" style="fill:rgb(249,167,119);fill-rule:nonzero;"/>
                </g>
                <g transform="matrix(1,0,0,1,59.6437,-1030.43)">
                    <path d="M345.711,129.289L195.711,129.289L195.711,209.289L425.711,209.289L345.711,129.289Z" style="fill:rgb(249,167,119);fill-rule:nonzero;"/>
                </g>
            </g>
            <g transform="matrix(1.32298,0,0,0.951885,-1144.78,452.047)">
                <text x="988.18px" y="305.775px" style="font-family:'OpenSans-SemiBold', 'Open Sans', sans-serif;font-weight:600;font-size:30.085px;fill:rgb(216,120,67);">index.html</text>
            </g>
            <g transform="matrix(1.32298,0,0,0.951885,-286.423,-0.830614)">
                <text x="1036.09px" y="305.775px" style="font-family:'OpenSans-SemiBold', 'Open Sans', sans-serif;font-weight:600;font-size:30.085px;fill:rgb(216,120,67);">web</text>
            </g>
            <g transform="matrix(0.176896,0,0,0.127277,333.611,418.018)">
                <rect x="125" y="300" width="750" height="500" style="fill:rgb(249,167,119);fill-rule:nonzero;"/>
            </g>
            <g transform="matrix(0.176896,0,0,0.127277,1716.77,418.018)">
                <rect x="125" y="300" width="750" height="500" style="fill:rgb(249,167,119);fill-rule:nonzero;"/>
            </g>
            <g transform="matrix(0.176896,0,0,0.127277,333.611,418.018)">
                <path d="M275,200L125,200L125,280L355,280L275,200Z" style="fill:rgb(249,167,119);fill-rule:nonzero;"/>
            </g>
            <g transform="matrix(0.176896,0,0,0.127277,1716.77,418.018)">
                <path d="M275,200L125,200L125,280L355,280L275,200Z" style="fill:rgb(249,167,119);fill-rule:nonzero;"/>
            </g>
            <g transform="matrix(1.32298,0,0,0.951885,-989.418,262.492)">
                <text x="1022.29px" y="305.775px" style="font-family:'OpenSans-SemiBold', 'Open Sans', sans-serif;font-weight:600;font-size:30.085px;fill:rgb(216,120,67);">public</text>
            </g>
            <g transform="matrix(1.32298,0,0,0.951885,393.738,262.492)">
                <text x="1045.16px" y="305.775px" style="font-family:'OpenSans-SemiBold', 'Open Sans', sans-serif;font-weight:600;font-size:30.085px;fill:rgb(216,120,67);">src</text>
            </g>
            <g transform="matrix(3.00612,0,0,2.16291,-300.669,-553.749)">
                <text x="331.878px" y="300.824px" style="font-family:'OpenSans-SemiBold', 'Open Sans', sans-serif;font-weight:600;font-size:19.976px;fill:rgb(51,51,51);">OCR project – web directory</text>
            </g>
            <g transform="matrix(0.885528,0,0,0.271583,542.562,10.0568)">
                <path d="M647.266,1134.49L-116.219,1529.73" style="fill:none;stroke:rgb(249,167,119);stroke-width:10.26px;"/>
            </g>
            <g transform="matrix(-0.885528,0,0,0.271583,1693.28,10.0309)">
                <path d="M647.266,1134.49L-126.408,1529.82" style="fill:none;stroke:rgb(249,167,119);stroke-width:10.26px;"/>
            </g>
            <g transform="matrix(0.803381,0,0,0.315447,266.214,179.546)">
                <path d="M191,1237L4.35,1407.77" style="fill:none;stroke:rgb(249,167,119);stroke-width:10.79px;"/>
            </g>
            <g transform="matrix(-0.0404445,-0.00204839,-0.0307908,0.314727,469.328,180.467)">
                <path d="M191,1237L-84.703,1500.72" style="fill:none;stroke:rgb(249,167,119);stroke-width:22.42px;"/>
            </g>
            <g transform="matrix(-0.673288,0,0,0.294237,622.677,211.034)">
                <path d="M293.706,1220.58L20.932,1703.14" style="fill:none;stroke:rgb(249,167,119);stroke-width:12.54px;"/>
            </g>
            <g transform="matrix(1.32298,0,0,0.951885,-802.646,452.047)">
                <text x="985.695px" y="305.775px" style="font-family:'OpenSans-SemiBold', 'Open Sans', sans-serif;font-weight:600;font-size:24.631px;fill:rgb(216,120,67);">manifest.json</text>
            </g>
            <g transform="matrix(1.32298,0,0,0.951885,-972.241,388.737)">
                <text x="1015.37px" y="305.775px" style="font-family:'OpenSans-SemiBold', 'Open Sans', sans-serif;font-weight:600;font-size:24.631px;fill:rgb(216,120,67);">logo.png</text>
            </g>
            <g transform="matrix(2.66818,0,0,1.91976,136.3,587.525)">
                <path d="M59.831,58.995C59.831,59.678 59.266,60.253 58.562,60.253L41.57,60.253C40.834,60.253 40.269,59.678 40.269,58.995L40.269,33.77C40.269,33.066 40.877,32.511 41.57,32.511L50.764,32.511L50.764,37.728C50.764,39.818 52.472,41.524 54.55,41.524L59.831,41.524L59.831,58.995ZM53.25,33.588L58.69,39.039L54.55,39.039C53.857,39.039 53.25,38.43 53.25,37.728L53.25,33.588ZM56.472,53.332L43.661,53.332C42.968,53.332 42.402,53.887 42.402,54.548C42.402,55.252 42.968,55.817 43.661,55.817L56.472,55.817C57.174,55.817 57.73,55.252 57.73,54.548C57.73,53.887 57.174,53.332 56.472,53.332ZM56.472,48.331L43.661,48.331C42.968,48.331 42.402,48.884 42.402,49.589C42.402,50.239 42.968,50.794 43.661,50.794L56.472,50.794C57.174,50.794 57.73,50.239 57.73,49.589C57.73,48.884 57.174,48.331 56.472,48.331ZM62.304,40.031C62.178,39.349 61.826,38.644 61.26,38.089L54.253,31.114C53.687,30.549 52.942,30.154 52.205,30.069L52.119,30.026L41.57,30.026C39.48,30.026 37.784,31.723 37.784,33.77L37.784,59.177C37.912,61.119 39.564,62.739 41.57,62.739L58.562,62.739C60.652,62.739 62.359,61.085 62.359,58.995L62.359,40.127L62.304,40.031Z" style="fill:rgb(249,167,119);"/>
            </g>
            <g transform="matrix(1.32298,0,0,0.31479,559.876,646.474)">
                <path d="M191,1237L190.022,1362.48" style="fill:none;stroke:rgb(249,167,119);stroke-width:7.09px;"/>
            </g>
            <g transform="matrix(1.32298,0,0,0.31479,1631.85,633.479)">
                <path d="M191,1237L190.022,1362.48" style="fill:none;stroke:rgb(249,167,119);stroke-width:7.09px;"/>
            </g>
            <g transform="matrix(1.32298,0,0,0.31479,1379.07,633.479)">
                <path d="M191,1237L190.022,1362.48" style="fill:none;stroke:rgb(249,167,119);stroke-width:7.09px;"/>
            </g>
            <g transform="matrix(0.176896,0,0,0.127277,730.061,890.993)">
                <rect x="125" y="300" width="750" height="500" style="fill:rgb(249,167,119);fill-rule:nonzero;"/>
            </g>
            <g transform="matrix(0.176896,0,0,0.127277,730.061,890.993)">
                <path d="M275,200L125,200L125,280L355,280L275,200Z" style="fill:rgb(249,167,119);fill-rule:nonzero;"/>
            </g>
            <g transform="matrix(1.32298,0,0,0.951885,-592.969,735.467)">
                <text x="1014.08px" y="305.775px" style="font-family:'OpenSans-SemiBold', 'Open Sans', sans-serif;font-weight:600;font-size:30.085px;fill:rgb(216,120,67);">actions</text>
            </g>
            <g transform="matrix(0.176896,0,0,0.127277,1279.23,879.436)">
                <rect x="125" y="300" width="750" height="500" style="fill:rgb(249,167,119);fill-rule:nonzero;"/>
            </g>
            <g transform="matrix(0.176896,0,0,0.127277,1556.11,874.345)">
                <rect x="125" y="300" width="750" height="500" style="fill:rgb(249,167,119);fill-rule:nonzero;"/>
            </g>
            <g transform="matrix(0.176896,0,0,0.127277,1796.6,874.345)">
                <rect x="125" y="300" width="750" height="500" style="fill:rgb(249,167,119);fill-rule:nonzero;"/>
            </g>
            <g transform="matrix(0.176896,0,0,0.127277,1279.23,879.436)">
                <path d="M275,200L125,200L125,280L355,280L275,200Z" style="fill:rgb(249,167,119);fill-rule:nonzero;"/>
            </g>
            <g transform="matrix(0.176896,0,0,0.127277,1556.11,874.345)">
                <path d="M275,200L125,200L125,280L355,280L275,200Z" style="fill:rgb(249,167,119);fill-rule:nonzero;"/>
            </g>
            <g transform="matrix(0.176896,0,0,0.127277,1796.6,874.345)">
                <path d="M275,200L125,200L125,280L355,280L275,200Z" style="fill:rgb(249,167,119);fill-rule:nonzero;"/>
            </g>
            <g transform="matrix(1.32298,0,0,0.951885,-43.7955,723.91)">
                <text x="975.841px" y="305.775px" style="font-family:'OpenSans-SemiBold', 'Open Sans', sans-serif;font-weight:600;font-size:30.085px;fill:rgb(216,120,67);">components</text>
            </g>
            <g transform="matrix(1.32298,0,0,0.951885,233.081,718.819)">
                <text x="1014.76px" y="305.775px" style="font-family:'OpenSans-SemiBold', 'Open Sans', sans-serif;font-weight:600;font-size:30.085px;fill:rgb(216,120,67);">images</text>
            </g>
            <g transform="matrix(1.32298,0,0,0.951885,473.574,718.819)">
                <text x="984.816px" y="305.775px" style="font-family:'OpenSans-SemiBold', 'Open Sans', sans-serif;font-weight:600;font-size:30.085px;fill:rgb(216,120,67);">stylesheets</text>
            </g>
            <g transform="matrix(1.32298,0,0,0.951885,-1190.05,724.931)">
                <text x="1010.7px" y="305.775px" style="font-family:'OpenSans-SemiBold', 'Open Sans', sans-serif;font-weight:600;font-size:30.085px;fill:rgb(216,120,67);">index.js</text>
            </g>
            <g transform="matrix(1.32298,0,0,0.951885,-598.437,902.429)">
                <text x="1010.7px" y="305.775px" style="font-family:'OpenSans-SemiBold', 'Open Sans', sans-serif;font-weight:600;font-size:30.085px;fill:rgb(216,120,67);">index.js</text>
            </g>
            <g transform="matrix(1.32298,0,0,0.951885,-510.481,1054.89)">
                <text x="1022.08px" y="305.775px" style="font-family:'OpenSans-SemiBold', 'Open Sans', sans-serif;font-weight:600;font-size:30.085px;fill:rgb(216,120,67);">App.js</text>
            </g>
            <g transform="matrix(1.32298,0,0,0.951885,-402.368,1171.31)">
                <text x="997.552px" y="305.775px" style="font-family:'OpenSans-SemiBold', 'Open Sans', sans-serif;font-weight:600;font-size:30.085px;fill:rgb(216,120,67);">Header.js</text>
            </g>
            <g transform="matrix(1.32298,0,0,0.951885,-185.532,1084.28)">
                <text x="973.689px" y="305.775px" style="font-family:'OpenSans-SemiBold', 'Open Sans', sans-serif;font-weight:600;font-size:30.085px;fill:rgb(216,120,67);">FileUpload.js</text>
            </g>
            <g transform="matrix(1.32298,0,0,0.951885,259.654,1054.89)">
                <text x="953.123px" y="305.775px" style="font-family:'OpenSans-SemiBold', 'Open Sans', sans-serif;font-weight:600;font-size:30.085px;fill:rgb(216,120,67);">ImageDisplay.js</text>
            </g>
            <g transform="matrix(1.32298,0,0,0.951885,527.623,1111.93)">
                <text x="966.476px" y="305.775px" style="font-family:'OpenSans-SemiBold', 'Open Sans', sans-serif;font-weight:600;font-size:30.085px;fill:rgb(216,120,67);">TextDisplay.js</text>
            </g>
            <g transform="matrix(1.32298,0,0,0.951885,64.4397,1187.86)">
                <text x="1005.51px" y="305.775px" style="font-family:'OpenSans-SemiBold', 'Open Sans', sans-serif;font-weight:600;font-size:30.085px;fill:rgb(216,120,67);">Result.js</text>
            </g>
            <g transform="matrix(1.32298,0,0,0.951885,-885.21,724.931)">
                <text x="946.277px" y="305.775px" style="font-family:'OpenSans-SemiBold', 'Open Sans', sans-serif;font-weight:600;font-size:30.085px;fill:rgb(216,120,67);">serviceWorker.js</text>
            </g>
            <g transform="matrix(2.66818,0,0,1.91976,87.5385,859.713)">
                <path d="M59.831,58.995C59.831,59.678 59.266,60.253 58.562,60.253L41.57,60.253C40.834,60.253 40.269,59.678 40.269,58.995L40.269,33.77C40.269,33.066 40.877,32.511 41.57,32.511L50.764,32.511L50.764,37.728C50.764,39.818 52.472,41.524 54.55,41.524L59.831,41.524L59.831,58.995ZM53.25,33.588L58.69,39.039L54.55,39.039C53.857,39.039 53.25,38.43 53.25,37.728L53.25,33.588ZM56.472,53.332L43.661,53.332C42.968,53.332 42.402,53.887 42.402,54.548C42.402,55.252 42.968,55.817 43.661,55.817L56.472,55.817C57.174,55.817 57.73,55.252 57.73,54.548C57.73,53.887 57.174,53.332 56.472,53.332ZM56.472,48.331L43.661,48.331C42.968,48.331 42.402,48.884 42.402,49.589C42.402,50.239 42.968,50.794 43.661,50.794L56.472,50.794C57.174,50.794 57.73,50.239 57.73,49.589C57.73,48.884 57.174,48.331 56.472,48.331ZM62.304,40.031C62.178,39.349 61.826,38.644 61.26,38.089L54.253,31.114C53.687,30.549 52.942,30.154 52.205,30.069L52.119,30.026L41.57,30.026C39.48,30.026 37.784,31.723 37.784,33.77L37.784,59.177C37.912,61.119 39.564,62.739 41.57,62.739L58.562,62.739C60.652,62.739 62.359,61.085 62.359,58.995L62.359,40.127L62.304,40.031Z" style="fill:rgb(249,167,119);"/>
            </g>
            <g transform="matrix(2.66818,0,0,1.91976,679.155,1037.21)">
                <path d="M59.831,58.995C59.831,59.678 59.266,60.253 58.562,60.253L41.57,60.253C40.834,60.253 40.269,59.678 40.269,58.995L40.269,33.77C40.269,33.066 40.877,32.511 41.57,32.511L50.764,32.511L50.764,37.728C50.764,39.818 52.472,41.524 54.55,41.524L59.831,41.524L59.831,58.995ZM53.25,33.588L58.69,39.039L54.55,39.039C53.857,39.039 53.25,38.43 53.25,37.728L53.25,33.588ZM56.472,53.332L43.661,53.332C42.968,53.332 42.402,53.887 42.402,54.548C42.402,55.252 42.968,55.817 43.661,55.817L56.472,55.817C57.174,55.817 57.73,55.252 57.73,54.548C57.73,53.887 57.174,53.332 56.472,53.332ZM56.472,48.331L43.661,48.331C42.968,48.331 42.402,48.884 42.402,49.589C42.402,50.239 42.968,50.794 43.661,50.794L56.472,50.794C57.174,50.794 57.73,50.239 57.73,49.589C57.73,48.884 57.174,48.331 56.472,48.331ZM62.304,40.031C62.178,39.349 61.826,38.644 61.26,38.089L54.253,31.114C53.687,30.549 52.942,30.154 52.205,30.069L52.119,30.026L41.57,30.026C39.48,30.026 37.784,31.723 37.784,33.77L37.784,59.177C37.912,61.119 39.564,62.739 41.57,62.739L58.562,62.739C60.652,62.739 62.359,61.085 62.359,58.995L62.359,40.127L62.304,40.031Z" style="fill:rgb(249,167,119);"/>
            </g>
            <g transform="matrix(2.66818,0,0,1.91976,767.112,1189.68)">
                <path d="M59.831,58.995C59.831,59.678 59.266,60.253 58.562,60.253L41.57,60.253C40.834,60.253 40.269,59.678 40.269,58.995L40.269,33.77C40.269,33.066 40.877,32.511 41.57,32.511L50.764,32.511L50.764,37.728C50.764,39.818 52.472,41.524 54.55,41.524L59.831,41.524L59.831,58.995ZM53.25,33.588L58.69,39.039L54.55,39.039C53.857,39.039 53.25,38.43 53.25,37.728L53.25,33.588ZM56.472,53.332L43.661,53.332C42.968,53.332 42.402,53.887 42.402,54.548C42.402,55.252 42.968,55.817 43.661,55.817L56.472,55.817C57.174,55.817 57.73,55.252 57.73,54.548C57.73,53.887 57.174,53.332 56.472,53.332ZM56.472,48.331L43.661,48.331C42.968,48.331 42.402,48.884 42.402,49.589C42.402,50.239 42.968,50.794 43.661,50.794L56.472,50.794C57.174,50.794 57.73,50.239 57.73,49.589C57.73,48.884 57.174,48.331 56.472,48.331ZM62.304,40.031C62.178,39.349 61.826,38.644 61.26,38.089L54.253,31.114C53.687,30.549 52.942,30.154 52.205,30.069L52.119,30.026L41.57,30.026C39.48,30.026 37.784,31.723 37.784,33.77L37.784,59.177C37.912,61.119 39.564,62.739 41.57,62.739L58.562,62.739C60.652,62.739 62.359,61.085 62.359,58.995L62.359,40.127L62.304,40.031Z" style="fill:rgb(249,167,119);"/>
            </g>
            <g transform="matrix(2.66818,0,0,1.91976,875.224,1306.09)">
                <path d="M59.831,58.995C59.831,59.678 59.266,60.253 58.562,60.253L41.57,60.253C40.834,60.253 40.269,59.678 40.269,58.995L40.269,33.77C40.269,33.066 40.877,32.511 41.57,32.511L50.764,32.511L50.764,37.728C50.764,39.818 52.472,41.524 54.55,41.524L59.831,41.524L59.831,58.995ZM53.25,33.588L58.69,39.039L54.55,39.039C53.857,39.039 53.25,38.43 53.25,37.728L53.25,33.588ZM56.472,53.332L43.661,53.332C42.968,53.332 42.402,53.887 42.402,54.548C42.402,55.252 42.968,55.817 43.661,55.817L56.472,55.817C57.174,55.817 57.73,55.252 57.73,54.548C57.73,53.887 57.174,53.332 56.472,53.332ZM56.472,48.331L43.661,48.331C42.968,48.331 42.402,48.884 42.402,49.589C42.402,50.239 42.968,50.794 43.661,50.794L56.472,50.794C57.174,50.794 57.73,50.239 57.73,49.589C57.73,48.884 57.174,48.331 56.472,48.331ZM62.304,40.031C62.178,39.349 61.826,38.644 61.26,38.089L54.253,31.114C53.687,30.549 52.942,30.154 52.205,30.069L52.119,30.026L41.57,30.026C39.48,30.026 37.784,31.723 37.784,33.77L37.784,59.177C37.912,61.119 39.564,62.739 41.57,62.739L58.562,62.739C60.652,62.739 62.359,61.085 62.359,58.995L62.359,40.127L62.304,40.031Z" style="fill:rgb(249,167,119);"/>
            </g>
            <g transform="matrix(2.66818,0,0,1.91976,1092.06,1219.06)">
                <path d="M59.831,58.995C59.831,59.678 59.266,60.253 58.562,60.253L41.57,60.253C40.834,60.253 40.269,59.678 40.269,58.995L40.269,33.77C40.269,33.066 40.877,32.511 41.57,32.511L50.764,32.511L50.764,37.728C50.764,39.818 52.472,41.524 54.55,41.524L59.831,41.524L59.831,58.995ZM53.25,33.588L58.69,39.039L54.55,39.039C53.857,39.039 53.25,38.43 53.25,37.728L53.25,33.588ZM56.472,53.332L43.661,53.332C42.968,53.332 42.402,53.887 42.402,54.548C42.402,55.252 42.968,55.817 43.661,55.817L56.472,55.817C57.174,55.817 57.73,55.252 57.73,54.548C57.73,53.887 57.174,53.332 56.472,53.332ZM56.472,48.331L43.661,48.331C42.968,48.331 42.402,48.884 42.402,49.589C42.402,50.239 42.968,50.794 43.661,50.794L56.472,50.794C57.174,50.794 57.73,50.239 57.73,49.589C57.73,48.884 57.174,48.331 56.472,48.331ZM62.304,40.031C62.178,39.349 61.826,38.644 61.26,38.089L54.253,31.114C53.687,30.549 52.942,30.154 52.205,30.069L52.119,30.026L41.57,30.026C39.48,30.026 37.784,31.723 37.784,33.77L37.784,59.177C37.912,61.119 39.564,62.739 41.57,62.739L58.562,62.739C60.652,62.739 62.359,61.085 62.359,58.995L62.359,40.127L62.304,40.031Z" style="fill:rgb(249,167,119);"/>
            </g>
            <g transform="matrix(2.66818,0,0,1.91976,1537.25,1189.68)">
                <path d="M59.831,58.995C59.831,59.678 59.266,60.253 58.562,60.253L41.57,60.253C40.834,60.253 40.269,59.678 40.269,58.995L40.269,33.77C40.269,33.066 40.877,32.511 41.57,32.511L50.764,32.511L50.764,37.728C50.764,39.818 52.472,41.524 54.55,41.524L59.831,41.524L59.831,58.995ZM53.25,33.588L58.69,39.039L54.55,39.039C53.857,39.039 53.25,38.43 53.25,37.728L53.25,33.588ZM56.472,53.332L43.661,53.332C42.968,53.332 42.402,53.887 42.402,54.548C42.402,55.252 42.968,55.817 43.661,55.817L56.472,55.817C57.174,55.817 57.73,55.252 57.73,54.548C57.73,53.887 57.174,53.332 56.472,53.332ZM56.472,48.331L43.661,48.331C42.968,48.331 42.402,48.884 42.402,49.589C42.402,50.239 42.968,50.794 43.661,50.794L56.472,50.794C57.174,50.794 57.73,50.239 57.73,49.589C57.73,48.884 57.174,48.331 56.472,48.331ZM62.304,40.031C62.178,39.349 61.826,38.644 61.26,38.089L54.253,31.114C53.687,30.549 52.942,30.154 52.205,30.069L52.119,30.026L41.57,30.026C39.48,30.026 37.784,31.723 37.784,33.77L37.784,59.177C37.912,61.119 39.564,62.739 41.57,62.739L58.562,62.739C60.652,62.739 62.359,61.085 62.359,58.995L62.359,40.127L62.304,40.031Z" style="fill:rgb(249,167,119);"/>
            </g>
            <g transform="matrix(2.66818,0,0,1.91976,1805.22,1246.72)">
                <path d="M59.831,58.995C59.831,59.678 59.266,60.253 58.562,60.253L41.57,60.253C40.834,60.253 40.269,59.678 40.269,58.995L40.269,33.77C40.269,33.066 40.877,32.511 41.57,32.511L50.764,32.511L50.764,37.728C50.764,39.818 52.472,41.524 54.55,41.524L59.831,41.524L59.831,58.995ZM53.25,33.588L58.69,39.039L54.55,39.039C53.857,39.039 53.25,38.43 53.25,37.728L53.25,33.588ZM56.472,53.332L43.661,53.332C42.968,53.332 42.402,53.887 42.402,54.548C42.402,55.252 42.968,55.817 43.661,55.817L56.472,55.817C57.174,55.817 57.73,55.252 57.73,54.548C57.73,53.887 57.174,53.332 56.472,53.332ZM56.472,48.331L43.661,48.331C42.968,48.331 42.402,48.884 42.402,49.589C42.402,50.239 42.968,50.794 43.661,50.794L56.472,50.794C57.174,50.794 57.73,50.239 57.73,49.589C57.73,48.884 57.174,48.331 56.472,48.331ZM62.304,40.031C62.178,39.349 61.826,38.644 61.26,38.089L54.253,31.114C53.687,30.549 52.942,30.154 52.205,30.069L52.119,30.026L41.57,30.026C39.48,30.026 37.784,31.723 37.784,33.77L37.784,59.177C37.912,61.119 39.564,62.739 41.57,62.739L58.562,62.739C60.652,62.739 62.359,61.085 62.359,58.995L62.359,40.127L62.304,40.031Z" style="fill:rgb(249,167,119);"/>
            </g>
            <g transform="matrix(2.66818,0,0,1.91976,1342.03,1322.64)">
                <path d="M59.831,58.995C59.831,59.678 59.266,60.253 58.562,60.253L41.57,60.253C40.834,60.253 40.269,59.678 40.269,58.995L40.269,33.77C40.269,33.066 40.877,32.511 41.57,32.511L50.764,32.511L50.764,37.728C50.764,39.818 52.472,41.524 54.55,41.524L59.831,41.524L59.831,58.995ZM53.25,33.588L58.69,39.039L54.55,39.039C53.857,39.039 53.25,38.43 53.25,37.728L53.25,33.588ZM56.472,53.332L43.661,53.332C42.968,53.332 42.402,53.887 42.402,54.548C42.402,55.252 42.968,55.817 43.661,55.817L56.472,55.817C57.174,55.817 57.73,55.252 57.73,54.548C57.73,53.887 57.174,53.332 56.472,53.332ZM56.472,48.331L43.661,48.331C42.968,48.331 42.402,48.884 42.402,49.589C42.402,50.239 42.968,50.794 43.661,50.794L56.472,50.794C57.174,50.794 57.73,50.239 57.73,49.589C57.73,48.884 57.174,48.331 56.472,48.331ZM62.304,40.031C62.178,39.349 61.826,38.644 61.26,38.089L54.253,31.114C53.687,30.549 52.942,30.154 52.205,30.069L52.119,30.026L41.57,30.026C39.48,30.026 37.784,31.723 37.784,33.77L37.784,59.177C37.912,61.119 39.564,62.739 41.57,62.739L58.562,62.739C60.652,62.739 62.359,61.085 62.359,58.995L62.359,40.127L62.304,40.031Z" style="fill:rgb(249,167,119);"/>
            </g>
            <g transform="matrix(2.66818,0,0,1.91976,392.344,859.713)">
                <path d="M59.831,58.995C59.831,59.678 59.266,60.253 58.562,60.253L41.57,60.253C40.834,60.253 40.269,59.678 40.269,58.995L40.269,33.77C40.269,33.066 40.877,32.511 41.57,32.511L50.764,32.511L50.764,37.728C50.764,39.818 52.472,41.524 54.55,41.524L59.831,41.524L59.831,58.995ZM53.25,33.588L58.69,39.039L54.55,39.039C53.857,39.039 53.25,38.43 53.25,37.728L53.25,33.588ZM56.472,53.332L43.661,53.332C42.968,53.332 42.402,53.887 42.402,54.548C42.402,55.252 42.968,55.817 43.661,55.817L56.472,55.817C57.174,55.817 57.73,55.252 57.73,54.548C57.73,53.887 57.174,53.332 56.472,53.332ZM56.472,48.331L43.661,48.331C42.968,48.331 42.402,48.884 42.402,49.589C42.402,50.239 42.968,50.794 43.661,50.794L56.472,50.794C57.174,50.794 57.73,50.239 57.73,49.589C57.73,48.884 57.174,48.331 56.472,48.331ZM62.304,40.031C62.178,39.349 61.826,38.644 61.26,38.089L54.253,31.114C53.687,30.549 52.942,30.154 52.205,30.069L52.119,30.026L41.57,30.026C39.48,30.026 37.784,31.723 37.784,33.77L37.784,59.177C37.912,61.119 39.564,62.739 41.57,62.739L58.562,62.739C60.652,62.739 62.359,61.085 62.359,58.995L62.359,40.127L62.304,40.031Z" style="fill:rgb(249,167,119);"/>
            </g>
            <g transform="matrix(0.803381,0,0,0.315447,1050.43,796.206)">
                <path d="M362.971,741.851L-184.423,1368.31" style="fill:none;stroke:rgb(249,167,119);stroke-width:10.79px;"/>
            </g>
            <g transform="matrix(0.803381,0,0,0.315447,1482.48,340.888)">
                <path d="M362.971,741.851L-1569.65,1771.81" style="fill:none;stroke:rgb(249,167,119);stroke-width:10.79px;"/>
            </g>
            <g transform="matrix(0.803381,0,0,0.315447,1482.48,340.888)">
                <path d="M362.971,741.851L-1202.07,1751.56" style="fill:none;stroke:rgb(249,167,119);stroke-width:10.79px;"/>
            </g>
            <g transform="matrix(0.803381,0,0,0.315447,1482.48,340.888)">
                <path d="M362.971,741.851L-827.206,1751.56" style="fill:none;stroke:rgb(249,167,119);stroke-width:10.79px;"/>
            </g>
            <g transform="matrix(0.803381,0,0,0.315447,1482.48,340.888)">
                <path d="M362.971,741.851L-142.891,1725.21" style="fill:none;stroke:rgb(249,167,119);stroke-width:10.79px;"/>
            </g>
            <g transform="matrix(0.803381,0,0,0.315447,1482.48,340.888)">
                <path d="M362.971,741.851L214.63,1725.21" style="fill:none;stroke:rgb(249,167,119);stroke-width:10.79px;"/>
            </g>
            <g transform="matrix(0.803381,0,0,0.315447,1482.48,340.888)">
                <path d="M362.971,741.851L501.1,1771.81" style="fill:none;stroke:rgb(249,167,119);stroke-width:10.79px;"/>
            </g>
            <g transform="matrix(-0.0404445,-0.00204839,-0.0307908,0.314727,1253.54,797.127)">
                <path d="M-2843.76,722.114L4845.11,1786.86" style="fill:none;stroke:rgb(249,167,119);stroke-width:22.42px;"/>
            </g>
            <g transform="matrix(-0.0404445,-0.00204839,-0.0307908,0.314727,1253.54,797.127)">
                <path d="M-2857.35,739.973L-6497.52,1766.98" style="fill:none;stroke:rgb(249,167,119);stroke-width:22.42px;"/>
            </g>
            <g transform="matrix(-0.0404445,-0.00204839,-0.0307908,0.314727,1253.54,797.127)">
                <path d="M-2840.48,717.814L-10937.2,1331.02" style="fill:none;stroke:rgb(249,167,119);stroke-width:22.42px;"/>
            </g>
            <g transform="matrix(-0.0404445,-0.00204839,-0.0307908,0.314727,1253.54,797.127)">
                <path d="M-2840.48,717.814L-18029.1,1455.18" style="fill:none;stroke:rgb(249,167,119);stroke-width:22.42px;"/>
            </g>
            <g transform="matrix(-0.0404445,-0.00204839,-0.0307908,0.314727,1253.54,797.127)">
                <path d="M-2843.76,722.114L-442.276,1492.66" style="fill:none;stroke:rgb(249,167,119);stroke-width:22.42px;"/>
            </g>
            <g transform="matrix(1.32298,0,0,0.951885,233.67,802.247)">
                <text x="994.685px" y="305.775px" style="font-family:'OpenSans-SemiBold', 'Open Sans', sans-serif;font-weight:600;font-size:24.631px;fill:rgb(51,51,51);">(image ﬁles)</text>
            </g>
            <g transform="matrix(1.32298,0,0,0.951885,486.263,801.208)">
                <text x="991.804px" y="305.775px" style="font-family:'OpenSans-SemiBold', 'Open Sans', sans-serif;font-weight:600;font-size:24.631px;fill:rgb(51,51,51);">(stylesheets)</text>
            </g>
        </g>
    </g>
</svg>
