<?xml version="1.0" encoding="UTF-8" standalone="no"?>
<!DOCTYPE svg PUBLIC "-//W3C//DTD SVG 1.1//EN" "http://www.w3.org/Graphics/SVG/1.1/DTD/svg11.dtd">
<svg width="100%" height="100%" viewBox="0 0 627 416" version="1.1" xmlns="http://www.w3.org/2000/svg" xmlns:xlink="http://www.w3.org/1999/xlink" xml:space="preserve" xmlns:serif="http://www.serif.com/" style="fill-rule:evenodd;clip-rule:evenodd;stroke-linecap:round;stroke-linejoin:round;stroke-miterlimit:1.5;">
    <g transform="matrix(1,0,0,1,-627,-1626.5)">
        <g id="trade-project---actions" serif:id="trade project - actions" transform="matrix(0.281924,0,0,0.2494,627,1626.5)">
            <rect x="0" y="0" width="2224" height="1668" style="fill:none;"/>
            <g transform="matrix(0.878993,0,0,0.812541,33.899,40.5962)">
                <rect x="26" y="0" width="2397" height="1932" style="fill:none;stroke:rgb(95,158,167);stroke-width:17.67px;"/>
            </g>
            <g id="commander">
            </g>
            <g id="qr">
            </g>
            <g id="packages" transform="matrix(0.17906,0,0,0.20241,578.931,428.945)">
                <g transform="matrix(1,0,0,1,2498.6,-690.728)">
                    <rect x="54.29" y="370.711" width="750" height="500" style="fill:rgb(249,167,119);fill-rule:nonzero;"/>
                </g>
                <g transform="matrix(1,0,0,1,2498.6,-690.728)">
                    <path d="M204.29,270.711L54.29,270.711L54.29,350.711L284.29,350.711L204.29,270.711Z" style="fill:rgb(249,167,119);fill-rule:nonzero;"/>
                </g>
                <g transform="matrix(1,0,0,1,2498.6,-690.728)">
                    <path d="M945.71,229.288L945.71,729.288L814.29,729.288L814.29,360.708L308.43,360.708L208.43,260.708L195.71,260.708L195.71,229.288L945.71,229.288Z" style="fill:rgb(249,167,119);fill-rule:nonzero;"/>
                </g>
                <g transform="matrix(1,0,0,1,2498.6,-690.728)">
                    <path d="M345.711,129.289L195.711,129.289L195.711,209.289L425.711,209.289L345.711,129.289Z" style="fill:rgb(249,167,119);fill-rule:nonzero;"/>
                </g>
            </g>
            <g id="web">
            </g>
            <g transform="matrix(1.34408,0,0,1.51936,-1241.4,934.382)">
                <text x="985.308px" y="305.775px" style="font-family:'OpenSans-SemiBold', 'Open Sans', sans-serif;font-weight:600;font-size:30.085px;fill:rgb(216,120,67);">buystock.js</text>
            </g>
            <g transform="matrix(1.34408,0,0,1.51936,-958.502,1053.7)">
                <text x="935.451px" y="305.775px" style="font-family:'OpenSans-SemiBold', 'Open Sans', sans-serif;font-weight:600;font-size:30.085px;fill:rgb(216,120,67);">getCashBalance.js</text>
            </g>
            <g transform="matrix(1.34408,0,0,1.51936,-643.866,934.382)">
                <text x="961.694px" y="305.775px" style="font-family:'OpenSans-SemiBold', 'Open Sans', sans-serif;font-weight:600;font-size:30.085px;fill:rgb(216,120,67);">getPositions.js</text>
            </g>
            <g transform="matrix(1.34408,0,0,1.51936,-365.381,1053.7)">
                <text x="905.028px" y="305.775px" style="font-family:'OpenSans-SemiBold', 'Open Sans', sans-serif;font-weight:600;font-size:30.085px;fill:rgb(216,120,67);">getStockDescription.js</text>
            </g>
            <g transform="matrix(1.34408,0,0,1.51936,-10.7539,934.382)">
                <text x="868.237px" y="305.775px" style="font-family:'OpenSans-SemiBold', 'Open Sans', sans-serif;font-weight:600;font-size:30.085px;fill:rgb(216,120,67);">workﬂogetStockHistoryw.js</text>
            </g>
            <g transform="matrix(1.34408,0,0,1.51936,358.524,1053.12)">
                <text x="961.224px" y="305.775px" style="font-family:'OpenSans-SemiBold', 'Open Sans', sans-serif;font-weight:600;font-size:30.085px;fill:rgb(216,120,67);">newAccount.js</text>
            </g>
            <g transform="matrix(1.34408,0,0,1.51936,603.068,934.382)">
                <text x="986.968px" y="305.775px" style="font-family:'OpenSans-SemiBold', 'Open Sans', sans-serif;font-weight:600;font-size:30.085px;fill:rgb(216,120,67);">sellStock.js</text>
            </g>
            <g transform="matrix(0.179717,0,0,0.203154,1024.21,710.471)">
                <rect x="125" y="300" width="750" height="500" style="fill:rgb(249,167,119);fill-rule:nonzero;"/>
            </g>
            <g transform="matrix(0.179717,0,0,0.203154,1024.21,710.471)">
                <path d="M275,200L125,200L125,280L355,280L275,200Z" style="fill:rgb(249,167,119);fill-rule:nonzero;"/>
            </g>
            <g transform="matrix(1.34408,0,0,1.51936,-319.918,462.227)">
                <text x="1027.26px" y="305.775px" style="font-family:'OpenSans-SemiBold', 'Open Sans', sans-serif;font-weight:600;font-size:30.085px;fill:rgb(216,120,67);">trade</text>
            </g>
            <g transform="matrix(1.34408,0,0,1.51936,-317.137,62.1657)">
                <text x="999.19px" y="305.775px" style="font-family:'OpenSans-SemiBold', 'Open Sans', sans-serif;font-weight:600;font-size:30.085px;fill:rgb(216,120,67);">packages</text>
            </g>
            <g transform="matrix(3.05407,0,0,3.45234,-313.046,-874.757)">
                <text x="323.743px" y="300.824px" style="font-family:'OpenSans-SemiBold', 'Open Sans', sans-serif;font-weight:600;font-size:19.976px;fill:rgb(51,51,51);">Trading project – trade action</text>
            </g>
            <g transform="matrix(0.816194,0,0,0.503502,333.515,44.4383)">
                <path d="M951.689,1054.71L951.08,1353.13" style="fill:none;stroke:rgb(249,167,119);stroke-width:10.79px;"/>
            </g>
            <g transform="matrix(0.816194,0,0,0.503502,333.515,445.4)">
                <path d="M951.689,1054.71L852.312,1751.3" style="fill:none;stroke:rgb(249,167,119);stroke-width:10.79px;"/>
            </g>
            <g transform="matrix(0.816194,0,0,0.503502,333.515,445.4)">
                <path d="M951.689,1054.71L1333.54,1528.32" style="fill:none;stroke:rgb(249,167,119);stroke-width:10.79px;"/>
            </g>
            <g transform="matrix(0.816194,0,0,0.503502,333.515,445.4)">
                <path d="M951.689,1054.71L1787.77,1751.3" style="fill:none;stroke:rgb(249,167,119);stroke-width:10.79px;"/>
            </g>
            <g transform="matrix(0.816194,0,0,0.503502,333.515,445.4)">
                <path d="M951.689,1054.71L2086.54,1528.32" style="fill:none;stroke:rgb(249,167,119);stroke-width:10.79px;"/>
            </g>
            <g transform="matrix(0.816194,0,0,0.503502,333.515,445.4)">
                <path d="M951.689,1054.71L557.887,1528.32" style="fill:none;stroke:rgb(249,167,119);stroke-width:10.79px;"/>
            </g>
            <g transform="matrix(0.816194,0,0,0.503502,333.515,445.4)">
                <path d="M951.689,1054.71L172.396,1751.3" style="fill:none;stroke:rgb(249,167,119);stroke-width:10.79px;"/>
            </g>
            <g transform="matrix(0.816194,0,0,0.503502,333.515,445.4)">
                <path d="M951.689,1054.71L-172.454,1528.32" style="fill:none;stroke:rgb(249,167,119);stroke-width:10.79px;"/>
            </g>
            <g transform="matrix(2.71073,0,0,3.06424,57.2223,1148.92)">
                <path d="M59.831,58.995C59.831,59.678 59.266,60.253 58.562,60.253L41.57,60.253C40.834,60.253 40.269,59.678 40.269,58.995L40.269,33.77C40.269,33.066 40.877,32.511 41.57,32.511L50.764,32.511L50.764,37.728C50.764,39.818 52.472,41.524 54.55,41.524L59.831,41.524L59.831,58.995ZM53.25,33.588L58.69,39.039L54.55,39.039C53.857,39.039 53.25,38.43 53.25,37.728L53.25,33.588ZM56.472,53.332L43.661,53.332C42.968,53.332 42.402,53.887 42.402,54.548C42.402,55.252 42.968,55.817 43.661,55.817L56.472,55.817C57.174,55.817 57.73,55.252 57.73,54.548C57.73,53.887 57.174,53.332 56.472,53.332ZM56.472,48.331L43.661,48.331C42.968,48.331 42.402,48.884 42.402,49.589C42.402,50.239 42.968,50.794 43.661,50.794L56.472,50.794C57.174,50.794 57.73,50.239 57.73,49.589C57.73,48.884 57.174,48.331 56.472,48.331ZM62.304,40.031C62.178,39.349 61.826,38.644 61.26,38.089L54.253,31.114C53.687,30.549 52.942,30.154 52.205,30.069L52.119,30.026L41.57,30.026C39.48,30.026 37.784,31.723 37.784,33.77L37.784,59.177C37.912,61.119 39.564,62.739 41.57,62.739L58.562,62.739C60.652,62.739 62.359,61.085 62.359,58.995L62.359,40.127L62.304,40.031Z" style="fill:rgb(249,167,119);"/>
            </g>
            <g transform="matrix(2.71073,0,0,3.06424,338.687,1263.18)">
                <path d="M59.831,58.995C59.831,59.678 59.266,60.253 58.562,60.253L41.57,60.253C40.834,60.253 40.269,59.678 40.269,58.995L40.269,33.77C40.269,33.066 40.877,32.511 41.57,32.511L50.764,32.511L50.764,37.728C50.764,39.818 52.472,41.524 54.55,41.524L59.831,41.524L59.831,58.995ZM53.25,33.588L58.69,39.039L54.55,39.039C53.857,39.039 53.25,38.43 53.25,37.728L53.25,33.588ZM56.472,53.332L43.661,53.332C42.968,53.332 42.402,53.887 42.402,54.548C42.402,55.252 42.968,55.817 43.661,55.817L56.472,55.817C57.174,55.817 57.73,55.252 57.73,54.548C57.73,53.887 57.174,53.332 56.472,53.332ZM56.472,48.331L43.661,48.331C42.968,48.331 42.402,48.884 42.402,49.589C42.402,50.239 42.968,50.794 43.661,50.794L56.472,50.794C57.174,50.794 57.73,50.239 57.73,49.589C57.73,48.884 57.174,48.331 56.472,48.331ZM62.304,40.031C62.178,39.349 61.826,38.644 61.26,38.089L54.253,31.114C53.687,30.549 52.942,30.154 52.205,30.069L52.119,30.026L41.57,30.026C39.48,30.026 37.784,31.723 37.784,33.77L37.784,59.177C37.912,61.119 39.564,62.739 41.57,62.739L58.562,62.739C60.652,62.739 62.359,61.085 62.359,58.995L62.359,40.127L62.304,40.031Z" style="fill:rgb(249,167,119);"/>
            </g>
            <g transform="matrix(2.71073,0,0,3.06424,653.323,1148.92)">
                <path d="M59.831,58.995C59.831,59.678 59.266,60.253 58.562,60.253L41.57,60.253C40.834,60.253 40.269,59.678 40.269,58.995L40.269,33.77C40.269,33.066 40.877,32.511 41.57,32.511L50.764,32.511L50.764,37.728C50.764,39.818 52.472,41.524 54.55,41.524L59.831,41.524L59.831,58.995ZM53.25,33.588L58.69,39.039L54.55,39.039C53.857,39.039 53.25,38.43 53.25,37.728L53.25,33.588ZM56.472,53.332L43.661,53.332C42.968,53.332 42.402,53.887 42.402,54.548C42.402,55.252 42.968,55.817 43.661,55.817L56.472,55.817C57.174,55.817 57.73,55.252 57.73,54.548C57.73,53.887 57.174,53.332 56.472,53.332ZM56.472,48.331L43.661,48.331C42.968,48.331 42.402,48.884 42.402,49.589C42.402,50.239 42.968,50.794 43.661,50.794L56.472,50.794C57.174,50.794 57.73,50.239 57.73,49.589C57.73,48.884 57.174,48.331 56.472,48.331ZM62.304,40.031C62.178,39.349 61.826,38.644 61.26,38.089L54.253,31.114C53.687,30.549 52.942,30.154 52.205,30.069L52.119,30.026L41.57,30.026C39.48,30.026 37.784,31.723 37.784,33.77L37.784,59.177C37.912,61.119 39.564,62.739 41.57,62.739L58.562,62.739C60.652,62.739 62.359,61.085 62.359,58.995L62.359,40.127L62.304,40.031Z" style="fill:rgb(249,167,119);"/>
            </g>
            <g transform="matrix(2.71073,0,0,3.06424,893.631,1263.18)">
                <path d="M59.831,58.995C59.831,59.678 59.266,60.253 58.562,60.253L41.57,60.253C40.834,60.253 40.269,59.678 40.269,58.995L40.269,33.77C40.269,33.066 40.877,32.511 41.57,32.511L50.764,32.511L50.764,37.728C50.764,39.818 52.472,41.524 54.55,41.524L59.831,41.524L59.831,58.995ZM53.25,33.588L58.69,39.039L54.55,39.039C53.857,39.039 53.25,38.43 53.25,37.728L53.25,33.588ZM56.472,53.332L43.661,53.332C42.968,53.332 42.402,53.887 42.402,54.548C42.402,55.252 42.968,55.817 43.661,55.817L56.472,55.817C57.174,55.817 57.73,55.252 57.73,54.548C57.73,53.887 57.174,53.332 56.472,53.332ZM56.472,48.331L43.661,48.331C42.968,48.331 42.402,48.884 42.402,49.589C42.402,50.239 42.968,50.794 43.661,50.794L56.472,50.794C57.174,50.794 57.73,50.239 57.73,49.589C57.73,48.884 57.174,48.331 56.472,48.331ZM62.304,40.031C62.178,39.349 61.826,38.644 61.26,38.089L54.253,31.114C53.687,30.549 52.942,30.154 52.205,30.069L52.119,30.026L41.57,30.026C39.48,30.026 37.784,31.723 37.784,33.77L37.784,59.177C37.912,61.119 39.564,62.739 41.57,62.739L58.562,62.739C60.652,62.739 62.359,61.085 62.359,58.995L62.359,40.127L62.304,40.031Z" style="fill:rgb(249,167,119);"/>
            </g>
            <g transform="matrix(2.71073,0,0,3.06424,1286.41,1148.92)">
                <path d="M59.831,58.995C59.831,59.678 59.266,60.253 58.562,60.253L41.57,60.253C40.834,60.253 40.269,59.678 40.269,58.995L40.269,33.77C40.269,33.066 40.877,32.511 41.57,32.511L50.764,32.511L50.764,37.728C50.764,39.818 52.472,41.524 54.55,41.524L59.831,41.524L59.831,58.995ZM53.25,33.588L58.69,39.039L54.55,39.039C53.857,39.039 53.25,38.43 53.25,37.728L53.25,33.588ZM56.472,53.332L43.661,53.332C42.968,53.332 42.402,53.887 42.402,54.548C42.402,55.252 42.968,55.817 43.661,55.817L56.472,55.817C57.174,55.817 57.73,55.252 57.73,54.548C57.73,53.887 57.174,53.332 56.472,53.332ZM56.472,48.331L43.661,48.331C42.968,48.331 42.402,48.884 42.402,49.589C42.402,50.239 42.968,50.794 43.661,50.794L56.472,50.794C57.174,50.794 57.73,50.239 57.73,49.589C57.73,48.884 57.174,48.331 56.472,48.331ZM62.304,40.031C62.178,39.349 61.826,38.644 61.26,38.089L54.253,31.114C53.687,30.549 52.942,30.154 52.205,30.069L52.119,30.026L41.57,30.026C39.48,30.026 37.784,31.723 37.784,33.77L37.784,59.177C37.912,61.119 39.564,62.739 41.57,62.739L58.562,62.739C60.652,62.739 62.359,61.085 62.359,58.995L62.359,40.127L62.304,40.031Z" style="fill:rgb(249,167,119);"/>
            </g>
            <g transform="matrix(2.71073,0,0,3.06424,1660.49,1263.18)">
                <path d="M59.831,58.995C59.831,59.678 59.266,60.253 58.562,60.253L41.57,60.253C40.834,60.253 40.269,59.678 40.269,58.995L40.269,33.77C40.269,33.066 40.877,32.511 41.57,32.511L50.764,32.511L50.764,37.728C50.764,39.818 52.472,41.524 54.55,41.524L59.831,41.524L59.831,58.995ZM53.25,33.588L58.69,39.039L54.55,39.039C53.857,39.039 53.25,38.43 53.25,37.728L53.25,33.588ZM56.472,53.332L43.661,53.332C42.968,53.332 42.402,53.887 42.402,54.548C42.402,55.252 42.968,55.817 43.661,55.817L56.472,55.817C57.174,55.817 57.73,55.252 57.73,54.548C57.73,53.887 57.174,53.332 56.472,53.332ZM56.472,48.331L43.661,48.331C42.968,48.331 42.402,48.884 42.402,49.589C42.402,50.239 42.968,50.794 43.661,50.794L56.472,50.794C57.174,50.794 57.73,50.239 57.73,49.589C57.73,48.884 57.174,48.331 56.472,48.331ZM62.304,40.031C62.178,39.349 61.826,38.644 61.26,38.089L54.253,31.114C53.687,30.549 52.942,30.154 52.205,30.069L52.119,30.026L41.57,30.026C39.48,30.026 37.784,31.723 37.784,33.77L37.784,59.177C37.912,61.119 39.564,62.739 41.57,62.739L58.562,62.739C60.652,62.739 62.359,61.085 62.359,58.995L62.359,40.127L62.304,40.031Z" style="fill:rgb(249,167,119);"/>
            </g>
            <g transform="matrix(2.71073,0,0,3.06424,1901,1148.92)">
                <path d="M59.831,58.995C59.831,59.678 59.266,60.253 58.562,60.253L41.57,60.253C40.834,60.253 40.269,59.678 40.269,58.995L40.269,33.77C40.269,33.066 40.877,32.511 41.57,32.511L50.764,32.511L50.764,37.728C50.764,39.818 52.472,41.524 54.55,41.524L59.831,41.524L59.831,58.995ZM53.25,33.588L58.69,39.039L54.55,39.039C53.857,39.039 53.25,38.43 53.25,37.728L53.25,33.588ZM56.472,53.332L43.661,53.332C42.968,53.332 42.402,53.887 42.402,54.548C42.402,55.252 42.968,55.817 43.661,55.817L56.472,55.817C57.174,55.817 57.73,55.252 57.73,54.548C57.73,53.887 57.174,53.332 56.472,53.332ZM56.472,48.331L43.661,48.331C42.968,48.331 42.402,48.884 42.402,49.589C42.402,50.239 42.968,50.794 43.661,50.794L56.472,50.794C57.174,50.794 57.73,50.239 57.73,49.589C57.73,48.884 57.174,48.331 56.472,48.331ZM62.304,40.031C62.178,39.349 61.826,38.644 61.26,38.089L54.253,31.114C53.687,30.549 52.942,30.154 52.205,30.069L52.119,30.026L41.57,30.026C39.48,30.026 37.784,31.723 37.784,33.77L37.784,59.177C37.912,61.119 39.564,62.739 41.57,62.739L58.562,62.739C60.652,62.739 62.359,61.085 62.359,58.995L62.359,40.127L62.304,40.031Z" style="fill:rgb(249,167,119);"/>
            </g>
            <g transform="matrix(2.71073,0,0,3.06424,689.303,858.785)">
                <clipPath id="_clip1">
                    <rect x="72.488" y="-47.971" width="100" height="100"/>
                </clipPath>
                <g clip-path="url(#_clip1)">
                    <path d="M59.831,58.995C59.831,59.678 59.266,60.253 58.562,60.253L41.57,60.253C40.834,60.253 40.269,59.678 40.269,58.995L40.269,33.77C40.269,33.066 40.877,32.511 41.57,32.511L50.764,32.511L50.764,37.728C50.764,39.818 52.472,41.524 54.55,41.524L59.831,41.524L59.831,58.995ZM53.25,33.588L58.69,39.039L54.55,39.039C53.857,39.039 53.25,38.43 53.25,37.728L53.25,33.588ZM56.472,53.332L43.661,53.332C42.968,53.332 42.402,53.887 42.402,54.548C42.402,55.252 42.968,55.817 43.661,55.817L56.472,55.817C57.174,55.817 57.73,55.252 57.73,54.548C57.73,53.887 57.174,53.332 56.472,53.332ZM56.472,48.331L43.661,48.331C42.968,48.331 42.402,48.884 42.402,49.589C42.402,50.239 42.968,50.794 43.661,50.794L56.472,50.794C57.174,50.794 57.73,50.239 57.73,49.589C57.73,48.884 57.174,48.331 56.472,48.331ZM62.304,40.031C62.178,39.349 61.826,38.644 61.26,38.089L54.253,31.114C53.687,30.549 52.942,30.154 52.205,30.069L52.119,30.026L41.57,30.026C39.48,30.026 37.784,31.723 37.784,33.77L37.784,59.177C37.912,61.119 39.564,62.739 41.57,62.739L58.562,62.739C60.652,62.739 62.359,61.085 62.359,58.995L62.359,40.127L62.304,40.031Z" style="fill:rgb(249,167,119);"/>
                </g>
            </g>
        </g>
    </g>
</svg>
