<?xml version="1.0" encoding="UTF-8" standalone="no"?>
<!DOCTYPE svg PUBLIC "-//W3C//DTD SVG 1.1//EN" "http://www.w3.org/Graphics/SVG/1.1/DTD/svg11.dtd">
<svg width="100%" height="100%" viewBox="0 0 800 835" version="1.1" xmlns="http://www.w3.org/2000/svg" xmlns:xlink="http://www.w3.org/1999/xlink" xml:space="preserve" xmlns:serif="http://www.serif.com/" style="fill-rule:evenodd;clip-rule:evenodd;stroke-linecap:round;stroke-linejoin:round;stroke-miterlimit:1.5;">
    <g transform="matrix(1,0,0,1,-627,-2067.5)">
        <g id="trade-project---web" serif:id="trade project - web" transform="matrix(0.359712,0,0,0.5003,627,2067.5)">
            <rect x="0" y="0" width="2224" height="1668" style="fill:none;"/>
            <g transform="matrix(0.885795,0,0,0.835897,22.1192,24.1103)">
                <rect x="26" y="0" width="2397" height="1932" style="fill:none;stroke:rgb(95,158,167);stroke-width:10.76px;"/>
            </g>
            <g id="commander">
            </g>
            <g id="qr">
            </g>
            <g id="packages">
            </g>
            <g id="web" transform="matrix(0.140338,0,0,0.100902,816.125,216.851)">
                <g transform="matrix(1,0,0,1,59.6437,-1030.43)">
                    <rect x="54.29" y="370.711" width="750" height="500" style="fill:rgb(249,167,119);fill-rule:nonzero;"/>
                </g>
                <g transform="matrix(1,0,0,1,59.6437,-1030.43)">
                    <path d="M204.29,270.711L54.29,270.711L54.29,350.711L284.29,350.711L204.29,270.711Z" style="fill:rgb(249,167,119);fill-rule:nonzero;"/>
                </g>
                <g transform="matrix(1,0,0,1,59.6437,-1030.43)">
                    <path d="M945.71,229.288L945.71,729.288L814.29,729.288L814.29,360.708L308.43,360.708L208.43,260.708L195.71,260.708L195.71,229.288L945.71,229.288Z" style="fill:rgb(249,167,119);fill-rule:nonzero;"/>
                </g>
                <g transform="matrix(1,0,0,1,59.6437,-1030.43)">
                    <path d="M345.711,129.289L195.711,129.289L195.711,209.289L425.711,209.289L345.711,129.289Z" style="fill:rgb(249,167,119);fill-rule:nonzero;"/>
                </g>
            </g>
            <g transform="matrix(1.05342,0,0,0.757402,-978.493,359.688)">
                <text x="988.18px" y="305.775px" style="font-family:'OpenSans-SemiBold', 'Open Sans', sans-serif;font-weight:600;font-size:30.085px;fill:rgb(216,120,67);">index.html</text>
            </g>
            <g transform="matrix(1.05342,0,0,0.757402,-228.064,-0.660908)">
                <text x="1036.09px" y="305.775px" style="font-family:'OpenSans-SemiBold', 'Open Sans', sans-serif;font-weight:600;font-size:30.085px;fill:rgb(216,120,67);">web</text>
            </g>
            <g transform="matrix(0.140853,0,0,0.101273,198.673,332.611)">
                <rect x="125" y="300" width="750" height="500" style="fill:rgb(249,167,119);fill-rule:nonzero;"/>
            </g>
            <g transform="matrix(0.140853,0,0,0.101273,198.673,332.611)">
                <path d="M275,200L125,200L125,280L355,280L275,200Z" style="fill:rgb(249,167,119);fill-rule:nonzero;"/>
            </g>
            <g transform="matrix(0.140853,0,0,0.101273,1313.79,336.662)">
                <rect x="125" y="300" width="750" height="500" style="fill:rgb(249,167,119);fill-rule:nonzero;"/>
            </g>
            <g transform="matrix(0.140853,0,0,0.101273,1313.79,336.662)">
                <path d="M275,200L125,200L125,280L355,280L275,200Z" style="fill:rgb(249,167,119);fill-rule:nonzero;"/>
            </g>
            <g transform="matrix(1.05342,0,0,0.757402,-854.789,208.861)">
                <text x="1022.29px" y="305.775px" style="font-family:'OpenSans-SemiBold', 'Open Sans', sans-serif;font-weight:600;font-size:30.085px;fill:rgb(216,120,67);">public</text>
            </g>
            <g transform="matrix(1.05342,0,0,0.757402,260.324,212.912)">
                <text x="1045.16px" y="305.775px" style="font-family:'OpenSans-SemiBold', 'Open Sans', sans-serif;font-weight:600;font-size:30.085px;fill:rgb(216,120,67);">src</text>
            </g>
            <g transform="matrix(2.39362,0,0,1.721,-68.581,-428.636)">
                <text x="315.798px" y="300.824px" style="font-family:'OpenSans-SemiBold', 'Open Sans', sans-serif;font-weight:600;font-size:19.976px;fill:rgb(51,51,51);">Trading project – web directory</text>
            </g>
            <g transform="matrix(0.705102,0,0,0.216094,432.015,8.00207)">
                <path d="M647.266,1134.49L-211.191,1595.89" style="fill:none;stroke:rgb(249,167,119);stroke-width:10.26px;"/>
            </g>
            <g transform="matrix(0.705102,0,0,0.216094,432.015,8.00207)">
                <path d="M647.266,1134.49L515.922,1689.92" style="fill:none;stroke:rgb(249,167,119);stroke-width:10.26px;"/>
            </g>
            <g transform="matrix(0.705102,0,0,0.216094,432.015,8.00207)">
                <path d="M647.266,1134.49L282.09,1689.92" style="fill:none;stroke:rgb(249,167,119);stroke-width:10.26px;"/>
            </g>
            <g transform="matrix(0.705102,0,0,0.216094,432.015,8.00207)">
                <path d="M647.266,1134.49L781.322,1652.13" style="fill:none;stroke:rgb(249,167,119);stroke-width:10.26px;"/>
            </g>
            <g transform="matrix(0.705102,0,0,0.216094,432.015,8.00207)">
                <path d="M647.266,1134.49L1040.35,1652.13" style="fill:none;stroke:rgb(249,167,119);stroke-width:10.26px;"/>
            </g>
            <g transform="matrix(0.705102,0,0,0.216094,432.015,8.00207)">
                <path d="M647.266,1134.49L38.388,1661.5" style="fill:none;stroke:rgb(249,167,119);stroke-width:10.26px;"/>
            </g>
            <g transform="matrix(-0.705102,0,0,0.216094,1348.27,7.98147)">
                <path d="M647.266,1134.49L-47.391,1595.99" style="fill:none;stroke:rgb(249,167,119);stroke-width:10.26px;"/>
            </g>
            <g transform="matrix(0.639692,0,0,0.250997,145.009,142.862)">
                <path d="M191,1237L4.35,1407.77" style="fill:none;stroke:rgb(249,167,119);stroke-width:10.79px;"/>
            </g>
            <g transform="matrix(-0.0322039,-0.00162987,-0.0245172,0.250424,306.738,143.595)">
                <path d="M191,1237L-84.703,1500.72" style="fill:none;stroke:rgb(249,167,119);stroke-width:22.42px;"/>
            </g>
            <g transform="matrix(-0.536105,0,0,0.23412,428.842,167.917)">
                <path d="M293.706,1220.58L20.932,1703.14" style="fill:none;stroke:rgb(249,167,119);stroke-width:12.54px;"/>
            </g>
            <g transform="matrix(1.05342,0,0,0.757402,-706.071,359.688)">
                <text x="985.695px" y="305.775px" style="font-family:'OpenSans-SemiBold', 'Open Sans', sans-serif;font-weight:600;font-size:24.631px;fill:rgb(216,120,67);">manifest.json</text>
            </g>
            <g transform="matrix(1.05342,0,0,0.757402,-841.112,309.313)">
                <text x="1002.9px" y="305.775px" style="font-family:'OpenSans-SemiBold', 'Open Sans', sans-serif;font-weight:600;font-size:24.631px;fill:rgb(216,120,67);">favicon.ico</text>
            </g>
            <g transform="matrix(2.12454,0,0,1.52753,41.5644,467.485)">
                <path d="M59.831,58.995C59.831,59.678 59.266,60.253 58.562,60.253L41.57,60.253C40.834,60.253 40.269,59.678 40.269,58.995L40.269,33.77C40.269,33.066 40.877,32.511 41.57,32.511L50.764,32.511L50.764,37.728C50.764,39.818 52.472,41.524 54.55,41.524L59.831,41.524L59.831,58.995ZM53.25,33.588L58.69,39.039L54.55,39.039C53.857,39.039 53.25,38.43 53.25,37.728L53.25,33.588ZM56.472,53.332L43.661,53.332C42.968,53.332 42.402,53.887 42.402,54.548C42.402,55.252 42.968,55.817 43.661,55.817L56.472,55.817C57.174,55.817 57.73,55.252 57.73,54.548C57.73,53.887 57.174,53.332 56.472,53.332ZM56.472,48.331L43.661,48.331C42.968,48.331 42.402,48.884 42.402,49.589C42.402,50.239 42.968,50.794 43.661,50.794L56.472,50.794C57.174,50.794 57.73,50.239 57.73,49.589C57.73,48.884 57.174,48.331 56.472,48.331ZM62.304,40.031C62.178,39.349 61.826,38.644 61.26,38.089L54.253,31.114C53.687,30.549 52.942,30.154 52.205,30.069L52.119,30.026L41.57,30.026C39.48,30.026 37.784,31.723 37.784,33.77L37.784,59.177C37.912,61.119 39.564,62.739 41.57,62.739L58.562,62.739C60.652,62.739 62.359,61.085 62.359,58.995L62.359,40.127L62.304,40.031Z" style="fill:rgb(249,167,119);"/>
            </g>
            <g transform="matrix(1.05342,0,0,0.250474,840.699,485.262)">
                <path d="M249.054,1139.28L191,1458.15" style="fill:none;stroke:rgb(249,167,119);stroke-width:7.09px;"/>
            </g>
            <g transform="matrix(1.05342,0,0,0.250474,840.699,485.262)">
                <path d="M249.054,1139.28L-31.392,1504.68" style="fill:none;stroke:rgb(249,167,119);stroke-width:7.09px;"/>
            </g>
            <g transform="matrix(1.05342,0,0,0.250474,1765.52,457.134)">
                <path d="M191,1237L190.022,1362.48" style="fill:none;stroke:rgb(249,167,119);stroke-width:7.09px;"/>
            </g>
            <g transform="matrix(1.05342,0,0,0.250474,1536.15,460.785)">
                <path d="M191,1237L190.022,1362.48" style="fill:none;stroke:rgb(249,167,119);stroke-width:7.09px;"/>
            </g>
            <g transform="matrix(0.140853,0,0,0.101273,1043.54,648.787)">
                <rect x="125" y="300" width="750" height="500" style="fill:rgb(249,167,119);fill-rule:nonzero;"/>
            </g>
            <g transform="matrix(0.140853,0,0,0.101273,1043.54,648.787)">
                <path d="M275,200L125,200L125,280L355,280L275,200Z" style="fill:rgb(249,167,119);fill-rule:nonzero;"/>
            </g>
            <g transform="matrix(1.05342,0,0,0.757402,-9.92025,525.037)">
                <text x="1021.4px" y="305.775px" style="font-family:'OpenSans-SemiBold', 'Open Sans', sans-serif;font-weight:600;font-size:30.085px;fill:rgb(216,120,67);">action</text>
            </g>
            <g transform="matrix(0.140853,0,0,0.101273,1363.05,644.849)">
                <rect x="125" y="300" width="750" height="500" style="fill:rgb(249,167,119);fill-rule:nonzero;"/>
            </g>
            <g transform="matrix(0.140853,0,0,0.101273,1665.9,648.888)">
                <rect x="125" y="300" width="750" height="500" style="fill:rgb(249,167,119);fill-rule:nonzero;"/>
            </g>
            <g transform="matrix(0.140853,0,0,0.101273,1896.71,648.787)">
                <rect x="125" y="300" width="750" height="500" style="fill:rgb(249,167,119);fill-rule:nonzero;"/>
            </g>
            <g transform="matrix(0.140853,0,0,0.101273,1363.05,644.849)">
                <path d="M275,200L125,200L125,280L355,280L275,200Z" style="fill:rgb(249,167,119);fill-rule:nonzero;"/>
            </g>
            <g transform="matrix(0.140853,0,0,0.101273,1665.9,648.888)">
                <path d="M275,200L125,200L125,280L355,280L275,200Z" style="fill:rgb(249,167,119);fill-rule:nonzero;"/>
            </g>
            <g transform="matrix(0.140853,0,0,0.101273,1896.71,648.787)">
                <path d="M275,200L125,200L125,280L355,280L275,200Z" style="fill:rgb(249,167,119);fill-rule:nonzero;"/>
            </g>
            <g transform="matrix(1.05342,0,0,0.757402,309.59,521.098)">
                <text x="975.841px" y="305.775px" style="font-family:'OpenSans-SemiBold', 'Open Sans', sans-serif;font-weight:600;font-size:30.085px;fill:rgb(216,120,67);">components</text>
            </g>
            <g transform="matrix(1.05342,0,0,0.757402,612.436,525.138)">
                <text x="1044.33px" y="305.775px" style="font-family:'OpenSans-SemiBold', 'Open Sans', sans-serif;font-weight:600;font-size:30.085px;fill:rgb(216,120,67);">css</text>
            </g>
            <g transform="matrix(0.140853,0,0,0.101273,1916.39,1276.94)">
                <rect x="125" y="300" width="750" height="500" style="fill:rgb(249,167,119);fill-rule:nonzero;"/>
            </g>
            <g transform="matrix(0.140853,0,0,0.101273,1916.39,1276.94)">
                <path d="M275,200L125,200L125,280L355,280L275,200Z" style="fill:rgb(249,167,119);fill-rule:nonzero;"/>
            </g>
            <g transform="matrix(1.05342,0,0,0.757402,862.926,1153.19)">
                <text x="1015.69px" y="305.775px" style="font-family:'OpenSans-SemiBold', 'Open Sans', sans-serif;font-weight:600;font-size:30.085px;fill:rgb(216,120,67);">submit</text>
            </g>
            <g transform="matrix(1.05342,0,0,0.757402,843.243,525.037)">
                <text x="1014.76px" y="305.775px" style="font-family:'OpenSans-SemiBold', 'Open Sans', sans-serif;font-weight:600;font-size:30.085px;fill:rgb(216,120,67);">images</text>
            </g>
            <g transform="matrix(1.05342,0,0,0.757402,-531.209,493.888)">
                <text x="1010.7px" y="305.775px" style="font-family:'OpenSans-SemiBold', 'Open Sans', sans-serif;font-weight:600;font-size:30.085px;fill:rgb(216,120,67);">index.js</text>
            </g>
            <g transform="matrix(1.05342,0,0,0.757402,-334.103,710.93)">
                <text x="940.063px" y="305.775px" style="font-family:'OpenSans-SemiBold', 'Open Sans', sans-serif;font-weight:600;font-size:30.085px;fill:rgb(216,120,67);">numberFormat.js</text>
            </g>
            <g transform="matrix(1.05342,0,0,0.757402,-233.021,1117.25)">
                <text x="1022.08px" y="305.775px" style="font-family:'OpenSans-SemiBold', 'Open Sans', sans-serif;font-weight:600;font-size:30.085px;fill:rgb(216,120,67);">App.js</text>
            </g>
            <g transform="matrix(1.05342,0,0,0.757402,-419.064,1158)">
                <text x="1006.8px" y="305.775px" style="font-family:'OpenSans-SemiBold', 'Open Sans', sans-serif;font-weight:600;font-size:30.085px;fill:rgb(216,120,67);">About.js</text>
            </g>
            <g transform="matrix(1.05342,0,0,0.757402,-175.817,1239.99)">
                <text x="1003.24px" y="305.775px" style="font-family:'OpenSans-SemiBold', 'Open Sans', sans-serif;font-weight:600;font-size:30.085px;fill:rgb(216,120,67);">Charts.js</text>
            </g>
            <g transform="matrix(1.05342,0,0,0.757402,42.4827,1179.06)">
                <text x="942.862px" y="305.775px" style="font-family:'OpenSans-SemiBold', 'Open Sans', sans-serif;font-weight:600;font-size:30.085px;fill:rgb(216,120,67);">ErrorBoundary.js</text>
            </g>
            <g transform="matrix(1.05342,0,0,0.757402,330.489,1169.18)">
                <text x="995.679px" y="305.775px" style="font-family:'OpenSans-SemiBold', 'Open Sans', sans-serif;font-weight:600;font-size:30.085px;fill:rgb(216,120,67);">Sidebar.js</text>
            </g>
            <g transform="matrix(1.05342,0,0,0.757402,474.267,1251.58)">
                <text x="980.909px" y="305.775px" style="font-family:'OpenSans-SemiBold', 'Open Sans', sans-serif;font-weight:600;font-size:30.085px;fill:rgb(216,120,67);">Summary.js</text>
            </g>
            <g transform="matrix(1.05342,0,0,0.757402,616.655,1188.55)">
                <text x="1006.86px" y="305.775px" style="font-family:'OpenSans-SemiBold', 'Open Sans', sans-serif;font-weight:600;font-size:30.085px;fill:rgb(216,120,67);">Ticker.js</text>
            </g>
            <g transform="matrix(1.05342,0,0,0.757402,210.381,1264.93)">
                <text x="997.552px" y="305.775px" style="font-family:'OpenSans-SemiBold', 'Open Sans', sans-serif;font-weight:600;font-size:30.085px;fill:rgb(216,120,67);">Header.js</text>
            </g>
            <g transform="matrix(1.05342,0,0,0.757402,-387.202,542.921)">
                <text x="946.277px" y="305.775px" style="font-family:'OpenSans-SemiBold', 'Open Sans', sans-serif;font-weight:600;font-size:30.085px;fill:rgb(216,120,67);">serviceWorker.js</text>
            </g>
            <g transform="matrix(2.12454,0,0,1.52753,486.074,601.132)">
                <path d="M59.831,58.995C59.831,59.678 59.266,60.253 58.562,60.253L41.57,60.253C40.834,60.253 40.269,59.678 40.269,58.995L40.269,33.77C40.269,33.066 40.877,32.511 41.57,32.511L50.764,32.511L50.764,37.728C50.764,39.818 52.472,41.524 54.55,41.524L59.831,41.524L59.831,58.995ZM53.25,33.588L58.69,39.039L54.55,39.039C53.857,39.039 53.25,38.43 53.25,37.728L53.25,33.588ZM56.472,53.332L43.661,53.332C42.968,53.332 42.402,53.887 42.402,54.548C42.402,55.252 42.968,55.817 43.661,55.817L56.472,55.817C57.174,55.817 57.73,55.252 57.73,54.548C57.73,53.887 57.174,53.332 56.472,53.332ZM56.472,48.331L43.661,48.331C42.968,48.331 42.402,48.884 42.402,49.589C42.402,50.239 42.968,50.794 43.661,50.794L56.472,50.794C57.174,50.794 57.73,50.239 57.73,49.589C57.73,48.884 57.174,48.331 56.472,48.331ZM62.304,40.031C62.178,39.349 61.826,38.644 61.26,38.089L54.253,31.114C53.687,30.549 52.942,30.154 52.205,30.069L52.119,30.026L41.57,30.026C39.48,30.026 37.784,31.723 37.784,33.77L37.784,59.177C37.912,61.119 39.564,62.739 41.57,62.739L58.562,62.739C60.652,62.739 62.359,61.085 62.359,58.995L62.359,40.127L62.304,40.031Z" style="fill:rgb(249,167,119);"/>
            </g>
            <g transform="matrix(2.12454,0,0,1.52753,683.18,818.174)">
                <path d="M59.831,58.995C59.831,59.678 59.266,60.253 58.562,60.253L41.57,60.253C40.834,60.253 40.269,59.678 40.269,58.995L40.269,33.77C40.269,33.066 40.877,32.511 41.57,32.511L50.764,32.511L50.764,37.728C50.764,39.818 52.472,41.524 54.55,41.524L59.831,41.524L59.831,58.995ZM53.25,33.588L58.69,39.039L54.55,39.039C53.857,39.039 53.25,38.43 53.25,37.728L53.25,33.588ZM56.472,53.332L43.661,53.332C42.968,53.332 42.402,53.887 42.402,54.548C42.402,55.252 42.968,55.817 43.661,55.817L56.472,55.817C57.174,55.817 57.73,55.252 57.73,54.548C57.73,53.887 57.174,53.332 56.472,53.332ZM56.472,48.331L43.661,48.331C42.968,48.331 42.402,48.884 42.402,49.589C42.402,50.239 42.968,50.794 43.661,50.794L56.472,50.794C57.174,50.794 57.73,50.239 57.73,49.589C57.73,48.884 57.174,48.331 56.472,48.331ZM62.304,40.031C62.178,39.349 61.826,38.644 61.26,38.089L54.253,31.114C53.687,30.549 52.942,30.154 52.205,30.069L52.119,30.026L41.57,30.026C39.48,30.026 37.784,31.723 37.784,33.77L37.784,59.177C37.912,61.119 39.564,62.739 41.57,62.739L58.562,62.739C60.652,62.739 62.359,61.085 62.359,58.995L62.359,40.127L62.304,40.031Z" style="fill:rgb(249,167,119);"/>
            </g>
            <g transform="matrix(2.12454,0,0,1.52753,932.159,813.817)">
                <path d="M59.831,58.995C59.831,59.678 59.266,60.253 58.562,60.253L41.57,60.253C40.834,60.253 40.269,59.678 40.269,58.995L40.269,33.77C40.269,33.066 40.877,32.511 41.57,32.511L50.764,32.511L50.764,37.728C50.764,39.818 52.472,41.524 54.55,41.524L59.831,41.524L59.831,58.995ZM53.25,33.588L58.69,39.039L54.55,39.039C53.857,39.039 53.25,38.43 53.25,37.728L53.25,33.588ZM56.472,53.332L43.661,53.332C42.968,53.332 42.402,53.887 42.402,54.548C42.402,55.252 42.968,55.817 43.661,55.817L56.472,55.817C57.174,55.817 57.73,55.252 57.73,54.548C57.73,53.887 57.174,53.332 56.472,53.332ZM56.472,48.331L43.661,48.331C42.968,48.331 42.402,48.884 42.402,49.589C42.402,50.239 42.968,50.794 43.661,50.794L56.472,50.794C57.174,50.794 57.73,50.239 57.73,49.589C57.73,48.884 57.174,48.331 56.472,48.331ZM62.304,40.031C62.178,39.349 61.826,38.644 61.26,38.089L54.253,31.114C53.687,30.549 52.942,30.154 52.205,30.069L52.119,30.026L41.57,30.026C39.48,30.026 37.784,31.723 37.784,33.77L37.784,59.177C37.912,61.119 39.564,62.739 41.57,62.739L58.562,62.739C60.652,62.739 62.359,61.085 62.359,58.995L62.359,40.127L62.304,40.031Z" style="fill:rgb(249,167,119);"/>
            </g>
            <g transform="matrix(2.12454,0,0,1.52753,784.262,1224.5)">
                <path d="M59.831,58.995C59.831,59.678 59.266,60.253 58.562,60.253L41.57,60.253C40.834,60.253 40.269,59.678 40.269,58.995L40.269,33.77C40.269,33.066 40.877,32.511 41.57,32.511L50.764,32.511L50.764,37.728C50.764,39.818 52.472,41.524 54.55,41.524L59.831,41.524L59.831,58.995ZM53.25,33.588L58.69,39.039L54.55,39.039C53.857,39.039 53.25,38.43 53.25,37.728L53.25,33.588ZM56.472,53.332L43.661,53.332C42.968,53.332 42.402,53.887 42.402,54.548C42.402,55.252 42.968,55.817 43.661,55.817L56.472,55.817C57.174,55.817 57.73,55.252 57.73,54.548C57.73,53.887 57.174,53.332 56.472,53.332ZM56.472,48.331L43.661,48.331C42.968,48.331 42.402,48.884 42.402,49.589C42.402,50.239 42.968,50.794 43.661,50.794L56.472,50.794C57.174,50.794 57.73,50.239 57.73,49.589C57.73,48.884 57.174,48.331 56.472,48.331ZM62.304,40.031C62.178,39.349 61.826,38.644 61.26,38.089L54.253,31.114C53.687,30.549 52.942,30.154 52.205,30.069L52.119,30.026L41.57,30.026C39.48,30.026 37.784,31.723 37.784,33.77L37.784,59.177C37.912,61.119 39.564,62.739 41.57,62.739L58.562,62.739C60.652,62.739 62.359,61.085 62.359,58.995L62.359,40.127L62.304,40.031Z" style="fill:rgb(249,167,119);"/>
            </g>
            <g transform="matrix(2.12454,0,0,1.52753,595.176,1265.17)">
                <path d="M59.831,58.995C59.831,59.678 59.266,60.253 58.562,60.253L41.57,60.253C40.834,60.253 40.269,59.678 40.269,58.995L40.269,33.77C40.269,33.066 40.877,32.511 41.57,32.511L50.764,32.511L50.764,37.728C50.764,39.818 52.472,41.524 54.55,41.524L59.831,41.524L59.831,58.995ZM53.25,33.588L58.69,39.039L54.55,39.039C53.857,39.039 53.25,38.43 53.25,37.728L53.25,33.588ZM56.472,53.332L43.661,53.332C42.968,53.332 42.402,53.887 42.402,54.548C42.402,55.252 42.968,55.817 43.661,55.817L56.472,55.817C57.174,55.817 57.73,55.252 57.73,54.548C57.73,53.887 57.174,53.332 56.472,53.332ZM56.472,48.331L43.661,48.331C42.968,48.331 42.402,48.884 42.402,49.589C42.402,50.239 42.968,50.794 43.661,50.794L56.472,50.794C57.174,50.794 57.73,50.239 57.73,49.589C57.73,48.884 57.174,48.331 56.472,48.331ZM62.304,40.031C62.178,39.349 61.826,38.644 61.26,38.089L54.253,31.114C53.687,30.549 52.942,30.154 52.205,30.069L52.119,30.026L41.57,30.026C39.48,30.026 37.784,31.723 37.784,33.77L37.784,59.177C37.912,61.119 39.564,62.739 41.57,62.739L58.562,62.739C60.652,62.739 62.359,61.085 62.359,58.995L62.359,40.127L62.304,40.031Z" style="fill:rgb(249,167,119);"/>
            </g>
            <g transform="matrix(2.12454,0,0,1.52753,841.466,1347.24)">
                <path d="M59.831,58.995C59.831,59.678 59.266,60.253 58.562,60.253L41.57,60.253C40.834,60.253 40.269,59.678 40.269,58.995L40.269,33.77C40.269,33.066 40.877,32.511 41.57,32.511L50.764,32.511L50.764,37.728C50.764,39.818 52.472,41.524 54.55,41.524L59.831,41.524L59.831,58.995ZM53.25,33.588L58.69,39.039L54.55,39.039C53.857,39.039 53.25,38.43 53.25,37.728L53.25,33.588ZM56.472,53.332L43.661,53.332C42.968,53.332 42.402,53.887 42.402,54.548C42.402,55.252 42.968,55.817 43.661,55.817L56.472,55.817C57.174,55.817 57.73,55.252 57.73,54.548C57.73,53.887 57.174,53.332 56.472,53.332ZM56.472,48.331L43.661,48.331C42.968,48.331 42.402,48.884 42.402,49.589C42.402,50.239 42.968,50.794 43.661,50.794L56.472,50.794C57.174,50.794 57.73,50.239 57.73,49.589C57.73,48.884 57.174,48.331 56.472,48.331ZM62.304,40.031C62.178,39.349 61.826,38.644 61.26,38.089L54.253,31.114C53.687,30.549 52.942,30.154 52.205,30.069L52.119,30.026L41.57,30.026C39.48,30.026 37.784,31.723 37.784,33.77L37.784,59.177C37.912,61.119 39.564,62.739 41.57,62.739L58.562,62.739C60.652,62.739 62.359,61.085 62.359,58.995L62.359,40.127L62.304,40.031Z" style="fill:rgb(249,167,119);"/>
            </g>
            <g transform="matrix(2.12454,0,0,1.52753,1059.77,1286.3)">
                <path d="M59.831,58.995C59.831,59.678 59.266,60.253 58.562,60.253L41.57,60.253C40.834,60.253 40.269,59.678 40.269,58.995L40.269,33.77C40.269,33.066 40.877,32.511 41.57,32.511L50.764,32.511L50.764,37.728C50.764,39.818 52.472,41.524 54.55,41.524L59.831,41.524L59.831,58.995ZM53.25,33.588L58.69,39.039L54.55,39.039C53.857,39.039 53.25,38.43 53.25,37.728L53.25,33.588ZM56.472,53.332L43.661,53.332C42.968,53.332 42.402,53.887 42.402,54.548C42.402,55.252 42.968,55.817 43.661,55.817L56.472,55.817C57.174,55.817 57.73,55.252 57.73,54.548C57.73,53.887 57.174,53.332 56.472,53.332ZM56.472,48.331L43.661,48.331C42.968,48.331 42.402,48.884 42.402,49.589C42.402,50.239 42.968,50.794 43.661,50.794L56.472,50.794C57.174,50.794 57.73,50.239 57.73,49.589C57.73,48.884 57.174,48.331 56.472,48.331ZM62.304,40.031C62.178,39.349 61.826,38.644 61.26,38.089L54.253,31.114C53.687,30.549 52.942,30.154 52.205,30.069L52.119,30.026L41.57,30.026C39.48,30.026 37.784,31.723 37.784,33.77L37.784,59.177C37.912,61.119 39.564,62.739 41.57,62.739L58.562,62.739C60.652,62.739 62.359,61.085 62.359,58.995L62.359,40.127L62.304,40.031Z" style="fill:rgb(249,167,119);"/>
            </g>
            <g transform="matrix(2.12454,0,0,1.52753,1347.77,1276.42)">
                <path d="M59.831,58.995C59.831,59.678 59.266,60.253 58.562,60.253L41.57,60.253C40.834,60.253 40.269,59.678 40.269,58.995L40.269,33.77C40.269,33.066 40.877,32.511 41.57,32.511L50.764,32.511L50.764,37.728C50.764,39.818 52.472,41.524 54.55,41.524L59.831,41.524L59.831,58.995ZM53.25,33.588L58.69,39.039L54.55,39.039C53.857,39.039 53.25,38.43 53.25,37.728L53.25,33.588ZM56.472,53.332L43.661,53.332C42.968,53.332 42.402,53.887 42.402,54.548C42.402,55.252 42.968,55.817 43.661,55.817L56.472,55.817C57.174,55.817 57.73,55.252 57.73,54.548C57.73,53.887 57.174,53.332 56.472,53.332ZM56.472,48.331L43.661,48.331C42.968,48.331 42.402,48.884 42.402,49.589C42.402,50.239 42.968,50.794 43.661,50.794L56.472,50.794C57.174,50.794 57.73,50.239 57.73,49.589C57.73,48.884 57.174,48.331 56.472,48.331ZM62.304,40.031C62.178,39.349 61.826,38.644 61.26,38.089L54.253,31.114C53.687,30.549 52.942,30.154 52.205,30.069L52.119,30.026L41.57,30.026C39.48,30.026 37.784,31.723 37.784,33.77L37.784,59.177C37.912,61.119 39.564,62.739 41.57,62.739L58.562,62.739C60.652,62.739 62.359,61.085 62.359,58.995L62.359,40.127L62.304,40.031Z" style="fill:rgb(249,167,119);"/>
            </g>
            <g transform="matrix(2.12454,0,0,1.52753,1491.55,1358.82)">
                <path d="M59.831,58.995C59.831,59.678 59.266,60.253 58.562,60.253L41.57,60.253C40.834,60.253 40.269,59.678 40.269,58.995L40.269,33.77C40.269,33.066 40.877,32.511 41.57,32.511L50.764,32.511L50.764,37.728C50.764,39.818 52.472,41.524 54.55,41.524L59.831,41.524L59.831,58.995ZM53.25,33.588L58.69,39.039L54.55,39.039C53.857,39.039 53.25,38.43 53.25,37.728L53.25,33.588ZM56.472,53.332L43.661,53.332C42.968,53.332 42.402,53.887 42.402,54.548C42.402,55.252 42.968,55.817 43.661,55.817L56.472,55.817C57.174,55.817 57.73,55.252 57.73,54.548C57.73,53.887 57.174,53.332 56.472,53.332ZM56.472,48.331L43.661,48.331C42.968,48.331 42.402,48.884 42.402,49.589C42.402,50.239 42.968,50.794 43.661,50.794L56.472,50.794C57.174,50.794 57.73,50.239 57.73,49.589C57.73,48.884 57.174,48.331 56.472,48.331ZM62.304,40.031C62.178,39.349 61.826,38.644 61.26,38.089L54.253,31.114C53.687,30.549 52.942,30.154 52.205,30.069L52.119,30.026L41.57,30.026C39.48,30.026 37.784,31.723 37.784,33.77L37.784,59.177C37.912,61.119 39.564,62.739 41.57,62.739L58.562,62.739C60.652,62.739 62.359,61.085 62.359,58.995L62.359,40.127L62.304,40.031Z" style="fill:rgb(249,167,119);"/>
            </g>
            <g transform="matrix(2.12454,0,0,1.52753,1633.94,1295.79)">
                <path d="M59.831,58.995C59.831,59.678 59.266,60.253 58.562,60.253L41.57,60.253C40.834,60.253 40.269,59.678 40.269,58.995L40.269,33.77C40.269,33.066 40.877,32.511 41.57,32.511L50.764,32.511L50.764,37.728C50.764,39.818 52.472,41.524 54.55,41.524L59.831,41.524L59.831,58.995ZM53.25,33.588L58.69,39.039L54.55,39.039C53.857,39.039 53.25,38.43 53.25,37.728L53.25,33.588ZM56.472,53.332L43.661,53.332C42.968,53.332 42.402,53.887 42.402,54.548C42.402,55.252 42.968,55.817 43.661,55.817L56.472,55.817C57.174,55.817 57.73,55.252 57.73,54.548C57.73,53.887 57.174,53.332 56.472,53.332ZM56.472,48.331L43.661,48.331C42.968,48.331 42.402,48.884 42.402,49.589C42.402,50.239 42.968,50.794 43.661,50.794L56.472,50.794C57.174,50.794 57.73,50.239 57.73,49.589C57.73,48.884 57.174,48.331 56.472,48.331ZM62.304,40.031C62.178,39.349 61.826,38.644 61.26,38.089L54.253,31.114C53.687,30.549 52.942,30.154 52.205,30.069L52.119,30.026L41.57,30.026C39.48,30.026 37.784,31.723 37.784,33.77L37.784,59.177C37.912,61.119 39.564,62.739 41.57,62.739L58.562,62.739C60.652,62.739 62.359,61.085 62.359,58.995L62.359,40.127L62.304,40.031Z" style="fill:rgb(249,167,119);"/>
            </g>
            <g transform="matrix(2.12454,0,0,1.52753,1227.66,1372.17)">
                <path d="M59.831,58.995C59.831,59.678 59.266,60.253 58.562,60.253L41.57,60.253C40.834,60.253 40.269,59.678 40.269,58.995L40.269,33.77C40.269,33.066 40.877,32.511 41.57,32.511L50.764,32.511L50.764,37.728C50.764,39.818 52.472,41.524 54.55,41.524L59.831,41.524L59.831,58.995ZM53.25,33.588L58.69,39.039L54.55,39.039C53.857,39.039 53.25,38.43 53.25,37.728L53.25,33.588ZM56.472,53.332L43.661,53.332C42.968,53.332 42.402,53.887 42.402,54.548C42.402,55.252 42.968,55.817 43.661,55.817L56.472,55.817C57.174,55.817 57.73,55.252 57.73,54.548C57.73,53.887 57.174,53.332 56.472,53.332ZM56.472,48.331L43.661,48.331C42.968,48.331 42.402,48.884 42.402,49.589C42.402,50.239 42.968,50.794 43.661,50.794L56.472,50.794C57.174,50.794 57.73,50.239 57.73,49.589C57.73,48.884 57.174,48.331 56.472,48.331ZM62.304,40.031C62.178,39.349 61.826,38.644 61.26,38.089L54.253,31.114C53.687,30.549 52.942,30.154 52.205,30.069L52.119,30.026L41.57,30.026C39.48,30.026 37.784,31.723 37.784,33.77L37.784,59.177C37.912,61.119 39.564,62.739 41.57,62.739L58.562,62.739C60.652,62.739 62.359,61.085 62.359,58.995L62.359,40.127L62.304,40.031Z" style="fill:rgb(249,167,119);"/>
            </g>
            <g transform="matrix(2.12454,0,0,1.52753,630.05,650.165)">
                <path d="M59.831,58.995C59.831,59.678 59.266,60.253 58.562,60.253L41.57,60.253C40.834,60.253 40.269,59.678 40.269,58.995L40.269,33.77C40.269,33.066 40.877,32.511 41.57,32.511L50.764,32.511L50.764,37.728C50.764,39.818 52.472,41.524 54.55,41.524L59.831,41.524L59.831,58.995ZM53.25,33.588L58.69,39.039L54.55,39.039C53.857,39.039 53.25,38.43 53.25,37.728L53.25,33.588ZM56.472,53.332L43.661,53.332C42.968,53.332 42.402,53.887 42.402,54.548C42.402,55.252 42.968,55.817 43.661,55.817L56.472,55.817C57.174,55.817 57.73,55.252 57.73,54.548C57.73,53.887 57.174,53.332 56.472,53.332ZM56.472,48.331L43.661,48.331C42.968,48.331 42.402,48.884 42.402,49.589C42.402,50.239 42.968,50.794 43.661,50.794L56.472,50.794C57.174,50.794 57.73,50.239 57.73,49.589C57.73,48.884 57.174,48.331 56.472,48.331ZM62.304,40.031C62.178,39.349 61.826,38.644 61.26,38.089L54.253,31.114C53.687,30.549 52.942,30.154 52.205,30.069L52.119,30.026L41.57,30.026C39.48,30.026 37.784,31.723 37.784,33.77L37.784,59.177C37.912,61.119 39.564,62.739 41.57,62.739L58.562,62.739C60.652,62.739 62.359,61.085 62.359,58.995L62.359,40.127L62.304,40.031Z" style="fill:rgb(249,167,119);"/>
            </g>
            <g transform="matrix(0.639692,0,0,0.250997,823.197,965.363)">
                <path d="M953.432,-790.418L120.808,1099.77" style="fill:none;stroke:rgb(249,167,119);stroke-width:10.79px;"/>
            </g>
            <g transform="matrix(0.639692,0,0,0.250997,842.992,1020.93)">
                <path d="M922.488,-1022.08L-217.816,1072.09" style="fill:none;stroke:rgb(249,167,119);stroke-width:10.79px;"/>
            </g>
            <g transform="matrix(0.639692,0,0,0.250997,1149.5,269.242)">
                <path d="M362.971,741.851L-841.588,1471.63" style="fill:none;stroke:rgb(249,167,119);stroke-width:10.79px;"/>
            </g>
            <g transform="matrix(0.639692,0,0,0.250997,1149.5,269.242)">
                <path d="M362.971,741.851L-428.928,1714.2" style="fill:none;stroke:rgb(249,167,119);stroke-width:10.79px;"/>
            </g>
            <g transform="matrix(0.639692,0,0,0.250997,1149.5,269.242)">
                <path d="M362.971,741.851L-624.595,1651.38" style="fill:none;stroke:rgb(249,167,119);stroke-width:10.79px;"/>
            </g>
            <g transform="matrix(0.639692,0,0,0.250997,1149.5,269.242)">
                <path d="M362.971,741.851L-32.978,1523.72" style="fill:none;stroke:rgb(249,167,119);stroke-width:10.79px;"/>
            </g>
            <g transform="matrix(0.639692,0,0,0.250997,1149.5,269.242)">
                <path d="M362.971,741.851L443.933,1527.54" style="fill:none;stroke:rgb(249,167,119);stroke-width:10.79px;"/>
            </g>
            <g transform="matrix(0.639692,0,0,0.250997,1149.5,269.242)">
                <path d="M362.971,741.851L923.36,1516.18" style="fill:none;stroke:rgb(249,167,119);stroke-width:10.79px;"/>
            </g>
            <g transform="matrix(0.639692,0,0,0.250997,1149.5,269.242)">
                <path d="M362.971,741.851L1275,1523.72" style="fill:none;stroke:rgb(249,167,119);stroke-width:10.79px;"/>
            </g>
            <g transform="matrix(-0.0322039,-0.00162987,-0.0245172,0.250424,984.927,966.095)">
                <path d="M-13250.7,-874.899L-807.673,1597.53" style="fill:none;stroke:rgb(249,167,119);stroke-width:22.42px;"/>
            </g>
            <g transform="matrix(-0.0322039,-0.00162987,-0.0245172,0.250424,984.927,966.095)">
                <path d="M-13244,-883.613L-11997.9,1628.01" style="fill:none;stroke:rgb(249,167,119);stroke-width:22.42px;"/>
            </g>
            <g transform="matrix(-0.0322039,-0.00162987,-0.0245172,0.250424,984.927,966.095)">
                <path d="M-13245.7,-881.362L-15066.5,1224.09" style="fill:none;stroke:rgb(249,167,119);stroke-width:22.42px;"/>
            </g>
            <g transform="matrix(-0.0322039,-0.00162987,-0.0245172,0.250424,984.927,966.095)">
                <path d="M-13266.7,-853.865L-20182.2,1541.45" style="fill:none;stroke:rgb(249,167,119);stroke-width:22.42px;"/>
            </g>
            <g transform="matrix(-0.0322039,-0.00162987,-0.0245172,0.250424,984.927,966.095)">
                <path d="M-13268.9,-850.885L-24283.4,1264.45" style="fill:none;stroke:rgb(249,167,119);stroke-width:22.42px;"/>
            </g>
            <g transform="matrix(-0.0322039,-0.00162987,-0.0245172,0.250424,984.927,966.095)">
                <path d="M-13266.7,-853.865L-31930.6,1076.95" style="fill:none;stroke:rgb(249,167,119);stroke-width:22.42px;"/>
            </g>
            <g transform="matrix(-0.0322039,-0.00162987,-0.0245172,0.250424,984.927,966.095)">
                <path d="M-13266.7,-853.865L-6613.8,1319.54" style="fill:none;stroke:rgb(249,167,119);stroke-width:22.42px;"/>
            </g>
            <g transform="matrix(1.05342,0,0,0.757402,680.056,1370.37)">
                <text x="1023.22px" y="305.775px" style="font-family:'OpenSans-SemiBold', 'Open Sans', sans-serif;font-weight:600;font-size:30.085px;fill:rgb(216,120,67);">Buy.js</text>
            </g>
            <g transform="matrix(1.05342,0,0,0.757402,945.582,1374.35)">
                <text x="999.087px" y="305.775px" style="font-family:'OpenSans-SemiBold', 'Open Sans', sans-serif;font-weight:600;font-size:30.085px;fill:rgb(216,120,67);">Submit.js</text>
            </g>
            <g transform="matrix(1.05342,0,0,0.757402,797.002,1370.37)">
                <text x="1025.44px" y="305.775px" style="font-family:'OpenSans-SemiBold', 'Open Sans', sans-serif;font-weight:600;font-size:30.085px;fill:rgb(216,120,67);">Sell.js</text>
            </g>
            <g transform="matrix(2.12454,0,0,1.52753,1694.96,1478.02)">
                <path d="M59.831,58.995C59.831,59.678 59.266,60.253 58.562,60.253L41.57,60.253C40.834,60.253 40.269,59.678 40.269,58.995L40.269,33.77C40.269,33.066 40.877,32.511 41.57,32.511L50.764,32.511L50.764,37.728C50.764,39.818 52.472,41.524 54.55,41.524L59.831,41.524L59.831,58.995ZM53.25,33.588L58.69,39.039L54.55,39.039C53.857,39.039 53.25,38.43 53.25,37.728L53.25,33.588ZM56.472,53.332L43.661,53.332C42.968,53.332 42.402,53.887 42.402,54.548C42.402,55.252 42.968,55.817 43.661,55.817L56.472,55.817C57.174,55.817 57.73,55.252 57.73,54.548C57.73,53.887 57.174,53.332 56.472,53.332ZM56.472,48.331L43.661,48.331C42.968,48.331 42.402,48.884 42.402,49.589C42.402,50.239 42.968,50.794 43.661,50.794L56.472,50.794C57.174,50.794 57.73,50.239 57.73,49.589C57.73,48.884 57.174,48.331 56.472,48.331ZM62.304,40.031C62.178,39.349 61.826,38.644 61.26,38.089L54.253,31.114C53.687,30.549 52.942,30.154 52.205,30.069L52.119,30.026L41.57,30.026C39.48,30.026 37.784,31.723 37.784,33.77L37.784,59.177C37.912,61.119 39.564,62.739 41.57,62.739L58.562,62.739C60.652,62.739 62.359,61.085 62.359,58.995L62.359,40.127L62.304,40.031Z" style="fill:rgb(249,167,119);"/>
            </g>
            <g transform="matrix(2.12454,0,0,1.52753,1962.87,1481.59)">
                <path d="M59.831,58.995C59.831,59.678 59.266,60.253 58.562,60.253L41.57,60.253C40.834,60.253 40.269,59.678 40.269,58.995L40.269,33.77C40.269,33.066 40.877,32.511 41.57,32.511L50.764,32.511L50.764,37.728C50.764,39.818 52.472,41.524 54.55,41.524L59.831,41.524L59.831,58.995ZM53.25,33.588L58.69,39.039L54.55,39.039C53.857,39.039 53.25,38.43 53.25,37.728L53.25,33.588ZM56.472,53.332L43.661,53.332C42.968,53.332 42.402,53.887 42.402,54.548C42.402,55.252 42.968,55.817 43.661,55.817L56.472,55.817C57.174,55.817 57.73,55.252 57.73,54.548C57.73,53.887 57.174,53.332 56.472,53.332ZM56.472,48.331L43.661,48.331C42.968,48.331 42.402,48.884 42.402,49.589C42.402,50.239 42.968,50.794 43.661,50.794L56.472,50.794C57.174,50.794 57.73,50.239 57.73,49.589C57.73,48.884 57.174,48.331 56.472,48.331ZM62.304,40.031C62.178,39.349 61.826,38.644 61.26,38.089L54.253,31.114C53.687,30.549 52.942,30.154 52.205,30.069L52.119,30.026L41.57,30.026C39.48,30.026 37.784,31.723 37.784,33.77L37.784,59.177C37.912,61.119 39.564,62.739 41.57,62.739L58.562,62.739C60.652,62.739 62.359,61.085 62.359,58.995L62.359,40.127L62.304,40.031Z" style="fill:rgb(249,167,119);"/>
            </g>
            <g transform="matrix(2.12454,0,0,1.52753,1814.29,1477.61)">
                <path d="M59.831,58.995C59.831,59.678 59.266,60.253 58.562,60.253L41.57,60.253C40.834,60.253 40.269,59.678 40.269,58.995L40.269,33.77C40.269,33.066 40.877,32.511 41.57,32.511L50.764,32.511L50.764,37.728C50.764,39.818 52.472,41.524 54.55,41.524L59.831,41.524L59.831,58.995ZM53.25,33.588L58.69,39.039L54.55,39.039C53.857,39.039 53.25,38.43 53.25,37.728L53.25,33.588ZM56.472,53.332L43.661,53.332C42.968,53.332 42.402,53.887 42.402,54.548C42.402,55.252 42.968,55.817 43.661,55.817L56.472,55.817C57.174,55.817 57.73,55.252 57.73,54.548C57.73,53.887 57.174,53.332 56.472,53.332ZM56.472,48.331L43.661,48.331C42.968,48.331 42.402,48.884 42.402,49.589C42.402,50.239 42.968,50.794 43.661,50.794L56.472,50.794C57.174,50.794 57.73,50.239 57.73,49.589C57.73,48.884 57.174,48.331 56.472,48.331ZM62.304,40.031C62.178,39.349 61.826,38.644 61.26,38.089L54.253,31.114C53.687,30.549 52.942,30.154 52.205,30.069L52.119,30.026L41.57,30.026C39.48,30.026 37.784,31.723 37.784,33.77L37.784,59.177C37.912,61.119 39.564,62.739 41.57,62.739L58.562,62.739C60.652,62.739 62.359,61.085 62.359,58.995L62.359,40.127L62.304,40.031Z" style="fill:rgb(249,167,119);"/>
            </g>
            <g transform="matrix(-0.0322039,-0.00162987,-0.0245172,0.250424,1706.62,1155.63)">
                <path d="M-9375.57,892.923L-7674.75,1356.86" style="fill:none;stroke:rgb(249,167,119);stroke-width:22.42px;"/>
            </g>
            <g transform="matrix(-0.0322039,-0.00162987,-0.0245172,0.250424,1706.62,1155.63)">
                <path d="M-9381.23,894.041L-12202.6,1343.08" style="fill:none;stroke:rgb(249,167,119);stroke-width:22.42px;"/>
            </g>
            <g transform="matrix(-0.0322039,-0.00162987,-0.0245172,0.250424,1706.62,1155.63)">
                <path d="M-9368.48,883.609L-4082.33,1372.15" style="fill:none;stroke:rgb(249,167,119);stroke-width:22.42px;"/>
            </g>
            <g transform="matrix(1.05342,0,0,0.757402,841.722,597.923)">
                <text x="994.685px" y="305.775px" style="font-family:'OpenSans-SemiBold', 'Open Sans', sans-serif;font-weight:600;font-size:24.631px;fill:rgb(51,51,51);">(image ﬁles)</text>
            </g>
            <g transform="matrix(1.05342,0,0,0.757402,612.938,597.923)">
                <text x="991.804px" y="305.775px" style="font-family:'OpenSans-SemiBold', 'Open Sans', sans-serif;font-weight:600;font-size:24.631px;fill:rgb(51,51,51);">(stylesheets)</text>
            </g>
            <g transform="matrix(1.05342,0,0,0.757402,-140.516,165.884)">
                <text x="1019.19px" y="305.775px" style="font-family:'OpenSans-SemiBold', 'Open Sans', sans-serif;font-weight:600;font-size:24.631px;fill:rgb(216,120,67);">build.sh</text>
            </g>
            <g transform="matrix(1.05342,0,0,0.757402,42.4387,161.667)">
                <text x="989.218px" y="305.775px" style="font-family:'OpenSans-SemiBold', 'Open Sans', sans-serif;font-weight:600;font-size:24.631px;fill:rgb(216,120,67);">package.json</text>
            </g>
            <g transform="matrix(1.05342,0,0,0.757402,-664.519,161.667)">
                <text x="1009.88px" y="305.775px" style="font-family:'OpenSans-SemiBold', 'Open Sans', sans-serif;font-weight:600;font-size:24.631px;fill:rgb(216,120,67);">.gitignore</text>
            </g>
            <g transform="matrix(1.05342,0,0,0.757402,-492.684,161.667)">
                <text x="1025px" y="305.775px" style="font-family:'OpenSans-SemiBold', 'Open Sans', sans-serif;font-weight:600;font-size:24.631px;fill:rgb(216,120,67);">.ignore</text>
            </g>
            <g transform="matrix(1.05342,0,0,0.757402,-253.323,492.815)">
                <text x="1016.98px" y="305.775px" style="font-family:'OpenSans-SemiBold', 'Open Sans', sans-serif;font-weight:600;font-size:24.631px;fill:rgb(216,120,67);">style.css</text>
            </g>
            <g transform="matrix(1.05342,0,0,0.757402,-317.854,165.884)">
                <text x="1007.46px" y="305.775px" style="font-family:'OpenSans-SemiBold', 'Open Sans', sans-serif;font-weight:600;font-size:24.631px;fill:rgb(216,120,67);">build.cmd</text>
            </g>
            <g transform="matrix(3.24766,0,0,2.33505,-1858.41,-5230.2)">
                <text x="867px" y="2643.61px" style="font-family:'OpenSans-SemiBold', 'Open Sans', sans-serif;font-weight:600;font-size:11.333px;fill:rgb(216,120,67);">services.js</text>
            </g>
        </g>
    </g>
</svg>
