<?xml version="1.0" encoding="UTF-8" standalone="no"?>
<!DOCTYPE svg PUBLIC "-//W3C//DTD SVG 1.1//EN" "http://www.w3.org/Graphics/SVG/1.1/DTD/svg11.dtd">
<svg width="100%" height="100%" viewBox="0 0 637 628" version="1.1" xmlns="http://www.w3.org/2000/svg" xmlns:xlink="http://www.w3.org/1999/xlink" xml:space="preserve" xmlns:serif="http://www.serif.com/" style="fill-rule:evenodd;clip-rule:evenodd;stroke-linecap:round;stroke-linejoin:round;stroke-miterlimit:1.5;">
    <g transform="matrix(1,0,0,1,-627,-2067.5)">
        <g id="trade-project---web" serif:id="trade project - web" transform="matrix(0.286421,0,0,0.376499,627,2067.5)">
            <rect x="0" y="0" width="2224" height="1668" style="fill:none;"/>
            <g transform="matrix(0.877089,0,0,0.821267,33.8988,32.0382)">
                <rect x="26" y="0" width="2397" height="1932" style="fill:none;stroke:rgb(95,158,167);stroke-width:14.2px;"/>
            </g>
            <g id="commander">
            </g>
            <g id="qr">
            </g>
            <g id="packages">
            </g>
            <g id="web" transform="matrix(0.176249,0,0,0.134081,1024.96,288.157)">
                <g transform="matrix(1,0,0,1,59.6437,-1030.43)">
                    <rect x="54.29" y="370.711" width="750" height="500" style="fill:rgb(249,167,119);fill-rule:nonzero;"/>
                </g>
                <g transform="matrix(1,0,0,1,59.6437,-1030.43)">
                    <path d="M204.29,270.711L54.29,270.711L54.29,350.711L284.29,350.711L204.29,270.711Z" style="fill:rgb(249,167,119);fill-rule:nonzero;"/>
                </g>
                <g transform="matrix(1,0,0,1,59.6437,-1030.43)">
                    <path d="M945.71,229.288L945.71,729.288L814.29,729.288L814.29,360.708L308.43,360.708L208.43,260.708L195.71,260.708L195.71,229.288L945.71,229.288Z" style="fill:rgb(249,167,119);fill-rule:nonzero;"/>
                </g>
                <g transform="matrix(1,0,0,1,59.6437,-1030.43)">
                    <path d="M345.711,129.289L195.711,129.289L195.711,209.289L425.711,209.289L345.711,129.289Z" style="fill:rgb(249,167,119);fill-rule:nonzero;"/>
                </g>
            </g>
            <g transform="matrix(1.32298,0,0,1.00645,-1228.88,477.961)">
                <text x="988.18px" y="305.775px" style="font-family:'OpenSans-SemiBold', 'Open Sans', sans-serif;font-weight:600;font-size:30.085px;fill:rgb(216,120,67);">index.html</text>
            </g>
            <g transform="matrix(1.32298,0,0,1.00645,-286.423,-0.878229)">
                <text x="1036.09px" y="305.775px" style="font-family:'OpenSans-SemiBold', 'Open Sans', sans-serif;font-weight:600;font-size:30.085px;fill:rgb(216,120,67);">web</text>
            </g>
            <g transform="matrix(0.176896,0,0,0.134573,249.511,441.981)">
                <rect x="125" y="300" width="750" height="500" style="fill:rgb(249,167,119);fill-rule:nonzero;"/>
            </g>
            <g transform="matrix(0.176896,0,0,0.134573,249.511,441.981)">
                <path d="M275,200L125,200L125,280L355,280L275,200Z" style="fill:rgb(249,167,119);fill-rule:nonzero;"/>
            </g>
            <g transform="matrix(0.176896,0,0,0.134573,1649.97,447.364)">
                <rect x="125" y="300" width="750" height="500" style="fill:rgb(249,167,119);fill-rule:nonzero;"/>
            </g>
            <g transform="matrix(0.176896,0,0,0.134573,1649.97,447.364)">
                <path d="M275,200L125,200L125,280L355,280L275,200Z" style="fill:rgb(249,167,119);fill-rule:nonzero;"/>
            </g>
            <g transform="matrix(1.32298,0,0,1.00645,-1073.52,277.539)">
                <text x="1022.29px" y="305.775px" style="font-family:'OpenSans-SemiBold', 'Open Sans', sans-serif;font-weight:600;font-size:30.085px;fill:rgb(216,120,67);">public</text>
            </g>
            <g transform="matrix(1.32298,0,0,1.00645,326.937,282.922)">
                <text x="1045.16px" y="305.775px" style="font-family:'OpenSans-SemiBold', 'Open Sans', sans-serif;font-weight:600;font-size:30.085px;fill:rgb(216,120,67);">src</text>
            </g>
            <g transform="matrix(3.00612,0,0,2.2869,-300.669,-585.493)">
                <text x="315.798px" y="300.824px" style="font-family:'OpenSans-SemiBold', 'Open Sans', sans-serif;font-weight:600;font-size:19.976px;fill:rgb(51,51,51);">Trading project – web directory</text>
            </g>
            <g transform="matrix(0.885528,0,0,0.287151,542.562,10.6333)">
                <path d="M647.266,1134.49L-211.191,1595.89" style="fill:none;stroke:rgb(249,167,119);stroke-width:10.26px;"/>
            </g>
            <g transform="matrix(0.885528,0,0,0.287151,542.562,10.6333)">
                <path d="M647.266,1134.49L515.922,1689.92" style="fill:none;stroke:rgb(249,167,119);stroke-width:10.26px;"/>
            </g>
            <g transform="matrix(0.885528,0,0,0.287151,542.562,10.6333)">
                <path d="M647.266,1134.49L282.09,1689.92" style="fill:none;stroke:rgb(249,167,119);stroke-width:10.26px;"/>
            </g>
            <g transform="matrix(0.885528,0,0,0.287151,542.562,10.6333)">
                <path d="M647.266,1134.49L781.322,1652.13" style="fill:none;stroke:rgb(249,167,119);stroke-width:10.26px;"/>
            </g>
            <g transform="matrix(0.885528,0,0,0.287151,542.562,10.6333)">
                <path d="M647.266,1134.49L1040.35,1652.13" style="fill:none;stroke:rgb(249,167,119);stroke-width:10.26px;"/>
            </g>
            <g transform="matrix(0.885528,0,0,0.287151,542.562,10.6333)">
                <path d="M647.266,1134.49L38.388,1661.5" style="fill:none;stroke:rgb(249,167,119);stroke-width:10.26px;"/>
            </g>
            <g transform="matrix(-0.885528,0,0,0.287151,1693.28,10.606)">
                <path d="M647.266,1134.49L-47.391,1595.99" style="fill:none;stroke:rgb(249,167,119);stroke-width:10.26px;"/>
            </g>
            <g transform="matrix(0.803381,0,0,0.33353,182.114,189.838)">
                <path d="M191,1237L4.35,1407.77" style="fill:none;stroke:rgb(249,167,119);stroke-width:10.79px;"/>
            </g>
            <g transform="matrix(-0.0404445,-0.00216581,-0.0307908,0.332769,385.228,190.812)">
                <path d="M191,1237L-84.703,1500.72" style="fill:none;stroke:rgb(249,167,119);stroke-width:22.42px;"/>
            </g>
            <g transform="matrix(-0.673288,0,0,0.311104,538.577,223.132)">
                <path d="M293.706,1220.58L20.932,1703.14" style="fill:none;stroke:rgb(249,167,119);stroke-width:12.54px;"/>
            </g>
            <g transform="matrix(1.32298,0,0,1.00645,-886.746,477.961)">
                <text x="985.695px" y="305.775px" style="font-family:'OpenSans-SemiBold', 'Open Sans', sans-serif;font-weight:600;font-size:24.631px;fill:rgb(216,120,67);">manifest.json</text>
            </g>
            <g transform="matrix(1.32298,0,0,1.00645,-1056.34,411.021)">
                <text x="1002.9px" y="305.775px" style="font-family:'OpenSans-SemiBold', 'Open Sans', sans-serif;font-weight:600;font-size:24.631px;fill:rgb(216,120,67);">favicon.ico</text>
            </g>
            <g transform="matrix(2.66818,0,0,2.02981,52.2002,621.205)">
                <path d="M59.831,58.995C59.831,59.678 59.266,60.253 58.562,60.253L41.57,60.253C40.834,60.253 40.269,59.678 40.269,58.995L40.269,33.77C40.269,33.066 40.877,32.511 41.57,32.511L50.764,32.511L50.764,37.728C50.764,39.818 52.472,41.524 54.55,41.524L59.831,41.524L59.831,58.995ZM53.25,33.588L58.69,39.039L54.55,39.039C53.857,39.039 53.25,38.43 53.25,37.728L53.25,33.588ZM56.472,53.332L43.661,53.332C42.968,53.332 42.402,53.887 42.402,54.548C42.402,55.252 42.968,55.817 43.661,55.817L56.472,55.817C57.174,55.817 57.73,55.252 57.73,54.548C57.73,53.887 57.174,53.332 56.472,53.332ZM56.472,48.331L43.661,48.331C42.968,48.331 42.402,48.884 42.402,49.589C42.402,50.239 42.968,50.794 43.661,50.794L56.472,50.794C57.174,50.794 57.73,50.239 57.73,49.589C57.73,48.884 57.174,48.331 56.472,48.331ZM62.304,40.031C62.178,39.349 61.826,38.644 61.26,38.089L54.253,31.114C53.687,30.549 52.942,30.154 52.205,30.069L52.119,30.026L41.57,30.026C39.48,30.026 37.784,31.723 37.784,33.77L37.784,59.177C37.912,61.119 39.564,62.739 41.57,62.739L58.562,62.739C60.652,62.739 62.359,61.085 62.359,58.995L62.359,40.127L62.304,40.031Z" style="fill:rgb(249,167,119);"/>
            </g>
            <g transform="matrix(1.32298,0,0,0.332836,559.876,683.533)">
                <path d="M191,1237L160.729,1474.64" style="fill:none;stroke:rgb(249,167,119);stroke-width:7.09px;"/>
            </g>
            <g transform="matrix(1.32298,0,0,0.332836,559.876,683.533)">
                <path d="M191,1237L-45.549,1547.62" style="fill:none;stroke:rgb(249,167,119);stroke-width:7.09px;"/>
            </g>
            <g transform="matrix(1.32298,0,0,0.332836,1793.27,666.531)">
                <path d="M191,1237L190.022,1362.48" style="fill:none;stroke:rgb(249,167,119);stroke-width:7.09px;"/>
            </g>
            <g transform="matrix(1.32298,0,0,0.332836,1505.21,671.382)">
                <path d="M191,1237L190.022,1362.48" style="fill:none;stroke:rgb(249,167,119);stroke-width:7.09px;"/>
            </g>
            <g transform="matrix(0.176896,0,0,0.134573,730.061,942.069)">
                <rect x="125" y="300" width="750" height="500" style="fill:rgb(249,167,119);fill-rule:nonzero;"/>
            </g>
            <g transform="matrix(0.176896,0,0,0.134573,730.061,942.069)">
                <path d="M275,200L125,200L125,280L355,280L275,200Z" style="fill:rgb(249,167,119);fill-rule:nonzero;"/>
            </g>
            <g transform="matrix(1.32298,0,0,1.00645,-592.969,777.627)">
                <text x="1021.4px" y="305.775px" style="font-family:'OpenSans-SemiBold', 'Open Sans', sans-serif;font-weight:600;font-size:30.085px;fill:rgb(216,120,67);">action</text>
            </g>
            <g transform="matrix(0.176896,0,0,0.134573,1279.23,929.849)">
                <rect x="125" y="300" width="750" height="500" style="fill:rgb(249,167,119);fill-rule:nonzero;"/>
            </g>
            <g transform="matrix(0.176896,0,0,0.134573,1668.16,921.338)">
                <rect x="125" y="300" width="750" height="500" style="fill:rgb(249,167,119);fill-rule:nonzero;"/>
            </g>
            <g transform="matrix(0.176896,0,0,0.134573,1958.03,921.205)">
                <rect x="125" y="300" width="750" height="500" style="fill:rgb(249,167,119);fill-rule:nonzero;"/>
            </g>
            <g transform="matrix(0.176896,0,0,0.134573,1279.23,929.849)">
                <path d="M275,200L125,200L125,280L355,280L275,200Z" style="fill:rgb(249,167,119);fill-rule:nonzero;"/>
            </g>
            <g transform="matrix(0.176896,0,0,0.134573,1668.16,921.338)">
                <path d="M275,200L125,200L125,280L355,280L275,200Z" style="fill:rgb(249,167,119);fill-rule:nonzero;"/>
            </g>
            <g transform="matrix(0.176896,0,0,0.134573,1958.03,921.205)">
                <path d="M275,200L125,200L125,280L355,280L275,200Z" style="fill:rgb(249,167,119);fill-rule:nonzero;"/>
            </g>
            <g transform="matrix(1.32298,0,0,1.00645,-43.7955,765.408)">
                <text x="975.841px" y="305.775px" style="font-family:'OpenSans-SemiBold', 'Open Sans', sans-serif;font-weight:600;font-size:30.085px;fill:rgb(216,120,67);">components</text>
            </g>
            <g transform="matrix(1.32298,0,0,1.00645,345.128,756.896)">
                <text x="1044.33px" y="305.775px" style="font-family:'OpenSans-SemiBold', 'Open Sans', sans-serif;font-weight:600;font-size:30.085px;fill:rgb(216,120,67);">css</text>
            </g>
            <g transform="matrix(1.32298,0,0,1.00645,634.995,756.763)">
                <text x="1014.76px" y="305.775px" style="font-family:'OpenSans-SemiBold', 'Open Sans', sans-serif;font-weight:600;font-size:30.085px;fill:rgb(216,120,67);">images</text>
            </g>
            <g transform="matrix(1.32298,0,0,1.00645,-1256.26,757.837)">
                <text x="1010.7px" y="305.775px" style="font-family:'OpenSans-SemiBold', 'Open Sans', sans-serif;font-weight:600;font-size:30.085px;fill:rgb(216,120,67);">index.js</text>
            </g>
            <g transform="matrix(1.32298,0,0,1.00645,-911.386,1016.3)">
                <text x="940.063px" y="305.775px" style="font-family:'OpenSans-SemiBold', 'Open Sans', sans-serif;font-weight:600;font-size:30.085px;fill:rgb(216,120,67);">numberFormat.js</text>
            </g>
            <g transform="matrix(1.32298,0,0,1.00645,-468.412,1128.16)">
                <text x="1022.08px" y="305.775px" style="font-family:'OpenSans-SemiBold', 'Open Sans', sans-serif;font-weight:600;font-size:30.085px;fill:rgb(216,120,67);">App.js</text>
            </g>
            <g transform="matrix(1.32298,0,0,1.00645,-673.255,1152.39)">
                <text x="1006.8px" y="305.775px" style="font-family:'OpenSans-SemiBold', 'Open Sans', sans-serif;font-weight:600;font-size:30.085px;fill:rgb(216,120,67);">About.js</text>
            </g>
            <g transform="matrix(1.32298,0,0,1.00645,-340.116,1221.57)">
                <text x="1003.24px" y="305.775px" style="font-family:'OpenSans-SemiBold', 'Open Sans', sans-serif;font-weight:600;font-size:30.085px;fill:rgb(216,120,67);">Charts.js</text>
            </g>
            <g transform="matrix(1.32298,0,0,1.00645,-108.818,1132.4)">
                <text x="942.862px" y="305.775px" style="font-family:'OpenSans-SemiBold', 'Open Sans', sans-serif;font-weight:600;font-size:30.085px;fill:rgb(216,120,67);">ErrorBoundary.js</text>
            </g>
            <g transform="matrix(1.32298,0,0,1.00645,197.556,1113.57)">
                <text x="995.679px" y="305.775px" style="font-family:'OpenSans-SemiBold', 'Open Sans', sans-serif;font-weight:600;font-size:30.085px;fill:rgb(216,120,67);">Sidebar.js</text>
            </g>
            <g transform="matrix(1.32298,0,0,1.00645,411.788,1164.9)">
                <text x="980.909px" y="305.775px" style="font-family:'OpenSans-SemiBold', 'Open Sans', sans-serif;font-weight:600;font-size:30.085px;fill:rgb(216,120,67);">Summary.js</text>
            </g>
            <g transform="matrix(1.32298,0,0,1.00645,606.402,1117.45)">
                <text x="1006.86px" y="305.775px" style="font-family:'OpenSans-SemiBold', 'Open Sans', sans-serif;font-weight:600;font-size:30.085px;fill:rgb(216,120,67);">Ticker.js</text>
            </g>
            <g transform="matrix(1.32298,0,0,1.00645,89.6132,1253.78)">
                <text x="997.552px" y="305.775px" style="font-family:'OpenSans-SemiBold', 'Open Sans', sans-serif;font-weight:600;font-size:30.085px;fill:rgb(216,120,67);">Header.js</text>
            </g>
            <g transform="matrix(1.32298,0,0,1.00645,-1075.4,822.992)">
                <text x="946.277px" y="305.775px" style="font-family:'OpenSans-SemiBold', 'Open Sans', sans-serif;font-weight:600;font-size:30.085px;fill:rgb(216,120,67);">serviceWorker.js</text>
            </g>
            <g transform="matrix(2.66818,0,0,2.02981,21.3329,900.344)">
                <path d="M59.831,58.995C59.831,59.678 59.266,60.253 58.562,60.253L41.57,60.253C40.834,60.253 40.269,59.678 40.269,58.995L40.269,33.77C40.269,33.066 40.877,32.511 41.57,32.511L50.764,32.511L50.764,37.728C50.764,39.818 52.472,41.524 54.55,41.524L59.831,41.524L59.831,58.995ZM53.25,33.588L58.69,39.039L54.55,39.039C53.857,39.039 53.25,38.43 53.25,37.728L53.25,33.588ZM56.472,53.332L43.661,53.332C42.968,53.332 42.402,53.887 42.402,54.548C42.402,55.252 42.968,55.817 43.661,55.817L56.472,55.817C57.174,55.817 57.73,55.252 57.73,54.548C57.73,53.887 57.174,53.332 56.472,53.332ZM56.472,48.331L43.661,48.331C42.968,48.331 42.402,48.884 42.402,49.589C42.402,50.239 42.968,50.794 43.661,50.794L56.472,50.794C57.174,50.794 57.73,50.239 57.73,49.589C57.73,48.884 57.174,48.331 56.472,48.331ZM62.304,40.031C62.178,39.349 61.826,38.644 61.26,38.089L54.253,31.114C53.687,30.549 52.942,30.154 52.205,30.069L52.119,30.026L41.57,30.026C39.48,30.026 37.784,31.723 37.784,33.77L37.784,59.177C37.912,61.119 39.564,62.739 41.57,62.739L58.562,62.739C60.652,62.739 62.359,61.085 62.359,58.995L62.359,40.127L62.304,40.031Z" style="fill:rgb(249,167,119);"/>
            </g>
            <g transform="matrix(2.66818,0,0,2.02981,366.206,1158.81)">
                <path d="M59.831,58.995C59.831,59.678 59.266,60.253 58.562,60.253L41.57,60.253C40.834,60.253 40.269,59.678 40.269,58.995L40.269,33.77C40.269,33.066 40.877,32.511 41.57,32.511L50.764,32.511L50.764,37.728C50.764,39.818 52.472,41.524 54.55,41.524L59.831,41.524L59.831,58.995ZM53.25,33.588L58.69,39.039L54.55,39.039C53.857,39.039 53.25,38.43 53.25,37.728L53.25,33.588ZM56.472,53.332L43.661,53.332C42.968,53.332 42.402,53.887 42.402,54.548C42.402,55.252 42.968,55.817 43.661,55.817L56.472,55.817C57.174,55.817 57.73,55.252 57.73,54.548C57.73,53.887 57.174,53.332 56.472,53.332ZM56.472,48.331L43.661,48.331C42.968,48.331 42.402,48.884 42.402,49.589C42.402,50.239 42.968,50.794 43.661,50.794L56.472,50.794C57.174,50.794 57.73,50.239 57.73,49.589C57.73,48.884 57.174,48.331 56.472,48.331ZM62.304,40.031C62.178,39.349 61.826,38.644 61.26,38.089L54.253,31.114C53.687,30.549 52.942,30.154 52.205,30.069L52.119,30.026L41.57,30.026C39.48,30.026 37.784,31.723 37.784,33.77L37.784,59.177C37.912,61.119 39.564,62.739 41.57,62.739L58.562,62.739C60.652,62.739 62.359,61.085 62.359,58.995L62.359,40.127L62.304,40.031Z" style="fill:rgb(249,167,119);"/>
            </g>
            <g transform="matrix(2.66818,0,0,2.02981,639.107,1120.65)">
                <path d="M59.831,58.995C59.831,59.678 59.266,60.253 58.562,60.253L41.57,60.253C40.834,60.253 40.269,59.678 40.269,58.995L40.269,33.77C40.269,33.066 40.877,32.511 41.57,32.511L50.764,32.511L50.764,37.728C50.764,39.818 52.472,41.524 54.55,41.524L59.831,41.524L59.831,58.995ZM53.25,33.588L58.69,39.039L54.55,39.039C53.857,39.039 53.25,38.43 53.25,37.728L53.25,33.588ZM56.472,53.332L43.661,53.332C42.968,53.332 42.402,53.887 42.402,54.548C42.402,55.252 42.968,55.817 43.661,55.817L56.472,55.817C57.174,55.817 57.73,55.252 57.73,54.548C57.73,53.887 57.174,53.332 56.472,53.332ZM56.472,48.331L43.661,48.331C42.968,48.331 42.402,48.884 42.402,49.589C42.402,50.239 42.968,50.794 43.661,50.794L56.472,50.794C57.174,50.794 57.73,50.239 57.73,49.589C57.73,48.884 57.174,48.331 56.472,48.331ZM62.304,40.031C62.178,39.349 61.826,38.644 61.26,38.089L54.253,31.114C53.687,30.549 52.942,30.154 52.205,30.069L52.119,30.026L41.57,30.026C39.48,30.026 37.784,31.723 37.784,33.77L37.784,59.177C37.912,61.119 39.564,62.739 41.57,62.739L58.562,62.739C60.652,62.739 62.359,61.085 62.359,58.995L62.359,40.127L62.304,40.031Z" style="fill:rgb(249,167,119);"/>
            </g>
            <g transform="matrix(2.66818,0,0,2.02981,809.181,1270.66)">
                <path d="M59.831,58.995C59.831,59.678 59.266,60.253 58.562,60.253L41.57,60.253C40.834,60.253 40.269,59.678 40.269,58.995L40.269,33.77C40.269,33.066 40.877,32.511 41.57,32.511L50.764,32.511L50.764,37.728C50.764,39.818 52.472,41.524 54.55,41.524L59.831,41.524L59.831,58.995ZM53.25,33.588L58.69,39.039L54.55,39.039C53.857,39.039 53.25,38.43 53.25,37.728L53.25,33.588ZM56.472,53.332L43.661,53.332C42.968,53.332 42.402,53.887 42.402,54.548C42.402,55.252 42.968,55.817 43.661,55.817L56.472,55.817C57.174,55.817 57.73,55.252 57.73,54.548C57.73,53.887 57.174,53.332 56.472,53.332ZM56.472,48.331L43.661,48.331C42.968,48.331 42.402,48.884 42.402,49.589C42.402,50.239 42.968,50.794 43.661,50.794L56.472,50.794C57.174,50.794 57.73,50.239 57.73,49.589C57.73,48.884 57.174,48.331 56.472,48.331ZM62.304,40.031C62.178,39.349 61.826,38.644 61.26,38.089L54.253,31.114C53.687,30.549 52.942,30.154 52.205,30.069L52.119,30.026L41.57,30.026C39.48,30.026 37.784,31.723 37.784,33.77L37.784,59.177C37.912,61.119 39.564,62.739 41.57,62.739L58.562,62.739C60.652,62.739 62.359,61.085 62.359,58.995L62.359,40.127L62.304,40.031Z" style="fill:rgb(249,167,119);"/>
            </g>
            <g transform="matrix(2.66818,0,0,2.02981,600.515,1294.8)">
                <path d="M59.831,58.995C59.831,59.678 59.266,60.253 58.562,60.253L41.57,60.253C40.834,60.253 40.269,59.678 40.269,58.995L40.269,33.77C40.269,33.066 40.877,32.511 41.57,32.511L50.764,32.511L50.764,37.728C50.764,39.818 52.472,41.524 54.55,41.524L59.831,41.524L59.831,58.995ZM53.25,33.588L58.69,39.039L54.55,39.039C53.857,39.039 53.25,38.43 53.25,37.728L53.25,33.588ZM56.472,53.332L43.661,53.332C42.968,53.332 42.402,53.887 42.402,54.548C42.402,55.252 42.968,55.817 43.661,55.817L56.472,55.817C57.174,55.817 57.73,55.252 57.73,54.548C57.73,53.887 57.174,53.332 56.472,53.332ZM56.472,48.331L43.661,48.331C42.968,48.331 42.402,48.884 42.402,49.589C42.402,50.239 42.968,50.794 43.661,50.794L56.472,50.794C57.174,50.794 57.73,50.239 57.73,49.589C57.73,48.884 57.174,48.331 56.472,48.331ZM62.304,40.031C62.178,39.349 61.826,38.644 61.26,38.089L54.253,31.114C53.687,30.549 52.942,30.154 52.205,30.069L52.119,30.026L41.57,30.026C39.48,30.026 37.784,31.723 37.784,33.77L37.784,59.177C37.912,61.119 39.564,62.739 41.57,62.739L58.562,62.739C60.652,62.739 62.359,61.085 62.359,58.995L62.359,40.127L62.304,40.031Z" style="fill:rgb(249,167,119);"/>
            </g>
            <g transform="matrix(2.66818,0,0,2.02981,937.476,1364.08)">
                <path d="M59.831,58.995C59.831,59.678 59.266,60.253 58.562,60.253L41.57,60.253C40.834,60.253 40.269,59.678 40.269,58.995L40.269,33.77C40.269,33.066 40.877,32.511 41.57,32.511L50.764,32.511L50.764,37.728C50.764,39.818 52.472,41.524 54.55,41.524L59.831,41.524L59.831,58.995ZM53.25,33.588L58.69,39.039L54.55,39.039C53.857,39.039 53.25,38.43 53.25,37.728L53.25,33.588ZM56.472,53.332L43.661,53.332C42.968,53.332 42.402,53.887 42.402,54.548C42.402,55.252 42.968,55.817 43.661,55.817L56.472,55.817C57.174,55.817 57.73,55.252 57.73,54.548C57.73,53.887 57.174,53.332 56.472,53.332ZM56.472,48.331L43.661,48.331C42.968,48.331 42.402,48.884 42.402,49.589C42.402,50.239 42.968,50.794 43.661,50.794L56.472,50.794C57.174,50.794 57.73,50.239 57.73,49.589C57.73,48.884 57.174,48.331 56.472,48.331ZM62.304,40.031C62.178,39.349 61.826,38.644 61.26,38.089L54.253,31.114C53.687,30.549 52.942,30.154 52.205,30.069L52.119,30.026L41.57,30.026C39.48,30.026 37.784,31.723 37.784,33.77L37.784,59.177C37.912,61.119 39.564,62.739 41.57,62.739L58.562,62.739C60.652,62.739 62.359,61.085 62.359,58.995L62.359,40.127L62.304,40.031Z" style="fill:rgb(249,167,119);"/>
            </g>
            <g transform="matrix(2.66818,0,0,2.02981,1168.77,1274.91)">
                <path d="M59.831,58.995C59.831,59.678 59.266,60.253 58.562,60.253L41.57,60.253C40.834,60.253 40.269,59.678 40.269,58.995L40.269,33.77C40.269,33.066 40.877,32.511 41.57,32.511L50.764,32.511L50.764,37.728C50.764,39.818 52.472,41.524 54.55,41.524L59.831,41.524L59.831,58.995ZM53.25,33.588L58.69,39.039L54.55,39.039C53.857,39.039 53.25,38.43 53.25,37.728L53.25,33.588ZM56.472,53.332L43.661,53.332C42.968,53.332 42.402,53.887 42.402,54.548C42.402,55.252 42.968,55.817 43.661,55.817L56.472,55.817C57.174,55.817 57.73,55.252 57.73,54.548C57.73,53.887 57.174,53.332 56.472,53.332ZM56.472,48.331L43.661,48.331C42.968,48.331 42.402,48.884 42.402,49.589C42.402,50.239 42.968,50.794 43.661,50.794L56.472,50.794C57.174,50.794 57.73,50.239 57.73,49.589C57.73,48.884 57.174,48.331 56.472,48.331ZM62.304,40.031C62.178,39.349 61.826,38.644 61.26,38.089L54.253,31.114C53.687,30.549 52.942,30.154 52.205,30.069L52.119,30.026L41.57,30.026C39.48,30.026 37.784,31.723 37.784,33.77L37.784,59.177C37.912,61.119 39.564,62.739 41.57,62.739L58.562,62.739C60.652,62.739 62.359,61.085 62.359,58.995L62.359,40.127L62.304,40.031Z" style="fill:rgb(249,167,119);"/>
            </g>
            <g transform="matrix(2.66818,0,0,2.02981,1475.15,1256.08)">
                <path d="M59.831,58.995C59.831,59.678 59.266,60.253 58.562,60.253L41.57,60.253C40.834,60.253 40.269,59.678 40.269,58.995L40.269,33.77C40.269,33.066 40.877,32.511 41.57,32.511L50.764,32.511L50.764,37.728C50.764,39.818 52.472,41.524 54.55,41.524L59.831,41.524L59.831,58.995ZM53.25,33.588L58.69,39.039L54.55,39.039C53.857,39.039 53.25,38.43 53.25,37.728L53.25,33.588ZM56.472,53.332L43.661,53.332C42.968,53.332 42.402,53.887 42.402,54.548C42.402,55.252 42.968,55.817 43.661,55.817L56.472,55.817C57.174,55.817 57.73,55.252 57.73,54.548C57.73,53.887 57.174,53.332 56.472,53.332ZM56.472,48.331L43.661,48.331C42.968,48.331 42.402,48.884 42.402,49.589C42.402,50.239 42.968,50.794 43.661,50.794L56.472,50.794C57.174,50.794 57.73,50.239 57.73,49.589C57.73,48.884 57.174,48.331 56.472,48.331ZM62.304,40.031C62.178,39.349 61.826,38.644 61.26,38.089L54.253,31.114C53.687,30.549 52.942,30.154 52.205,30.069L52.119,30.026L41.57,30.026C39.48,30.026 37.784,31.723 37.784,33.77L37.784,59.177C37.912,61.119 39.564,62.739 41.57,62.739L58.562,62.739C60.652,62.739 62.359,61.085 62.359,58.995L62.359,40.127L62.304,40.031Z" style="fill:rgb(249,167,119);"/>
            </g>
            <g transform="matrix(2.66818,0,0,2.02981,1689.38,1307.4)">
                <path d="M59.831,58.995C59.831,59.678 59.266,60.253 58.562,60.253L41.57,60.253C40.834,60.253 40.269,59.678 40.269,58.995L40.269,33.77C40.269,33.066 40.877,32.511 41.57,32.511L50.764,32.511L50.764,37.728C50.764,39.818 52.472,41.524 54.55,41.524L59.831,41.524L59.831,58.995ZM53.25,33.588L58.69,39.039L54.55,39.039C53.857,39.039 53.25,38.43 53.25,37.728L53.25,33.588ZM56.472,53.332L43.661,53.332C42.968,53.332 42.402,53.887 42.402,54.548C42.402,55.252 42.968,55.817 43.661,55.817L56.472,55.817C57.174,55.817 57.73,55.252 57.73,54.548C57.73,53.887 57.174,53.332 56.472,53.332ZM56.472,48.331L43.661,48.331C42.968,48.331 42.402,48.884 42.402,49.589C42.402,50.239 42.968,50.794 43.661,50.794L56.472,50.794C57.174,50.794 57.73,50.239 57.73,49.589C57.73,48.884 57.174,48.331 56.472,48.331ZM62.304,40.031C62.178,39.349 61.826,38.644 61.26,38.089L54.253,31.114C53.687,30.549 52.942,30.154 52.205,30.069L52.119,30.026L41.57,30.026C39.48,30.026 37.784,31.723 37.784,33.77L37.784,59.177C37.912,61.119 39.564,62.739 41.57,62.739L58.562,62.739C60.652,62.739 62.359,61.085 62.359,58.995L62.359,40.127L62.304,40.031Z" style="fill:rgb(249,167,119);"/>
            </g>
            <g transform="matrix(2.66818,0,0,2.02981,1883.99,1259.96)">
                <path d="M59.831,58.995C59.831,59.678 59.266,60.253 58.562,60.253L41.57,60.253C40.834,60.253 40.269,59.678 40.269,58.995L40.269,33.77C40.269,33.066 40.877,32.511 41.57,32.511L50.764,32.511L50.764,37.728C50.764,39.818 52.472,41.524 54.55,41.524L59.831,41.524L59.831,58.995ZM53.25,33.588L58.69,39.039L54.55,39.039C53.857,39.039 53.25,38.43 53.25,37.728L53.25,33.588ZM56.472,53.332L43.661,53.332C42.968,53.332 42.402,53.887 42.402,54.548C42.402,55.252 42.968,55.817 43.661,55.817L56.472,55.817C57.174,55.817 57.73,55.252 57.73,54.548C57.73,53.887 57.174,53.332 56.472,53.332ZM56.472,48.331L43.661,48.331C42.968,48.331 42.402,48.884 42.402,49.589C42.402,50.239 42.968,50.794 43.661,50.794L56.472,50.794C57.174,50.794 57.73,50.239 57.73,49.589C57.73,48.884 57.174,48.331 56.472,48.331ZM62.304,40.031C62.178,39.349 61.826,38.644 61.26,38.089L54.253,31.114C53.687,30.549 52.942,30.154 52.205,30.069L52.119,30.026L41.57,30.026C39.48,30.026 37.784,31.723 37.784,33.77L37.784,59.177C37.912,61.119 39.564,62.739 41.57,62.739L58.562,62.739C60.652,62.739 62.359,61.085 62.359,58.995L62.359,40.127L62.304,40.031Z" style="fill:rgb(249,167,119);"/>
            </g>
            <g transform="matrix(2.66818,0,0,2.02981,1367.21,1396.29)">
                <path d="M59.831,58.995C59.831,59.678 59.266,60.253 58.562,60.253L41.57,60.253C40.834,60.253 40.269,59.678 40.269,58.995L40.269,33.77C40.269,33.066 40.877,32.511 41.57,32.511L50.764,32.511L50.764,37.728C50.764,39.818 52.472,41.524 54.55,41.524L59.831,41.524L59.831,58.995ZM53.25,33.588L58.69,39.039L54.55,39.039C53.857,39.039 53.25,38.43 53.25,37.728L53.25,33.588ZM56.472,53.332L43.661,53.332C42.968,53.332 42.402,53.887 42.402,54.548C42.402,55.252 42.968,55.817 43.661,55.817L56.472,55.817C57.174,55.817 57.73,55.252 57.73,54.548C57.73,53.887 57.174,53.332 56.472,53.332ZM56.472,48.331L43.661,48.331C42.968,48.331 42.402,48.884 42.402,49.589C42.402,50.239 42.968,50.794 43.661,50.794L56.472,50.794C57.174,50.794 57.73,50.239 57.73,49.589C57.73,48.884 57.174,48.331 56.472,48.331ZM62.304,40.031C62.178,39.349 61.826,38.644 61.26,38.089L54.253,31.114C53.687,30.549 52.942,30.154 52.205,30.069L52.119,30.026L41.57,30.026C39.48,30.026 37.784,31.723 37.784,33.77L37.784,59.177C37.912,61.119 39.564,62.739 41.57,62.739L58.562,62.739C60.652,62.739 62.359,61.085 62.359,58.995L62.359,40.127L62.304,40.031Z" style="fill:rgb(249,167,119);"/>
            </g>
            <g transform="matrix(2.66818,0,0,2.02981,202.151,965.5)">
                <path d="M59.831,58.995C59.831,59.678 59.266,60.253 58.562,60.253L41.57,60.253C40.834,60.253 40.269,59.678 40.269,58.995L40.269,33.77C40.269,33.066 40.877,32.511 41.57,32.511L50.764,32.511L50.764,37.728C50.764,39.818 52.472,41.524 54.55,41.524L59.831,41.524L59.831,58.995ZM53.25,33.588L58.69,39.039L54.55,39.039C53.857,39.039 53.25,38.43 53.25,37.728L53.25,33.588ZM56.472,53.332L43.661,53.332C42.968,53.332 42.402,53.887 42.402,54.548C42.402,55.252 42.968,55.817 43.661,55.817L56.472,55.817C57.174,55.817 57.73,55.252 57.73,54.548C57.73,53.887 57.174,53.332 56.472,53.332ZM56.472,48.331L43.661,48.331C42.968,48.331 42.402,48.884 42.402,49.589C42.402,50.239 42.968,50.794 43.661,50.794L56.472,50.794C57.174,50.794 57.73,50.239 57.73,49.589C57.73,48.884 57.174,48.331 56.472,48.331ZM62.304,40.031C62.178,39.349 61.826,38.644 61.26,38.089L54.253,31.114C53.687,30.549 52.942,30.154 52.205,30.069L52.119,30.026L41.57,30.026C39.48,30.026 37.784,31.723 37.784,33.77L37.784,59.177C37.912,61.119 39.564,62.739 41.57,62.739L58.562,62.739C60.652,62.739 62.359,61.085 62.359,58.995L62.359,40.127L62.304,40.031Z" style="fill:rgb(249,167,119);"/>
            </g>
            <g transform="matrix(0.803381,0,0,0.33353,1050.43,841.849)">
                <path d="M362.971,741.851L-119.723,1422.17" style="fill:none;stroke:rgb(249,167,119);stroke-width:10.79px;"/>
            </g>
            <g transform="matrix(0.803381,0,0,0.33353,1050.43,841.849)">
                <path d="M362.971,741.851L-342.772,1552.34" style="fill:none;stroke:rgb(249,167,119);stroke-width:10.79px;"/>
            </g>
            <g transform="matrix(0.803381,0,0,0.33353,1443.64,357.775)">
                <path d="M362.971,741.851L-1604.34,1743.23" style="fill:none;stroke:rgb(249,167,119);stroke-width:10.79px;"/>
            </g>
            <g transform="matrix(0.803381,0,0,0.33353,1443.64,357.775)">
                <path d="M362.971,741.851L-1106.31,1911.61" style="fill:none;stroke:rgb(249,167,119);stroke-width:10.79px;"/>
            </g>
            <g transform="matrix(0.803381,0,0,0.33353,1443.64,357.775)">
                <path d="M362.971,741.851L-1379.27,1937.13" style="fill:none;stroke:rgb(249,167,119);stroke-width:10.79px;"/>
            </g>
            <g transform="matrix(0.803381,0,0,0.33353,1443.64,357.775)">
                <path d="M362.971,741.851L-767.929,1786.53" style="fill:none;stroke:rgb(249,167,119);stroke-width:10.79px;"/>
            </g>
            <g transform="matrix(0.803381,0,0,0.33353,1443.64,357.775)">
                <path d="M362.971,741.851L-76.003,1742.08" style="fill:none;stroke:rgb(249,167,119);stroke-width:10.79px;"/>
            </g>
            <g transform="matrix(0.803381,0,0,0.33353,1443.64,357.775)">
                <path d="M362.971,741.851L399.538,1742.08" style="fill:none;stroke:rgb(249,167,119);stroke-width:10.79px;"/>
            </g>
            <g transform="matrix(0.803381,0,0,0.33353,1443.64,357.775)">
                <path d="M362.971,741.851L749.729,1743.23" style="fill:none;stroke:rgb(249,167,119);stroke-width:10.79px;"/>
            </g>
            <g transform="matrix(-0.0404445,-0.00216581,-0.0307908,0.332769,1253.54,842.822)">
                <path d="M-2843.76,722.114L3224.83,1690.3" style="fill:none;stroke:rgb(249,167,119);stroke-width:22.42px;"/>
            </g>
            <g transform="matrix(-0.0404445,-0.00216581,-0.0307908,0.332769,1253.54,842.822)">
                <path d="M-2857.35,739.973L-7431.77,1737.58" style="fill:none;stroke:rgb(249,167,119);stroke-width:22.42px;"/>
            </g>
            <g transform="matrix(-0.0404445,-0.00216581,-0.0307908,0.332769,1253.54,842.822)">
                <path d="M-2840.48,717.814L-9791.18,1321.54" style="fill:none;stroke:rgb(249,167,119);stroke-width:22.42px;"/>
            </g>
            <g transform="matrix(-0.0404445,-0.00216581,-0.0307908,0.332769,1253.54,842.822)">
                <path d="M-2840.48,717.814L-15161.4,1427.93" style="fill:none;stroke:rgb(249,167,119);stroke-width:22.42px;"/>
            </g>
            <g transform="matrix(-0.0404445,-0.00216581,-0.0307908,0.332769,1253.54,842.822)">
                <path d="M-2840.48,717.814L-19780.2,1273.47" style="fill:none;stroke:rgb(249,167,119);stroke-width:22.42px;"/>
            </g>
            <g transform="matrix(-0.0404445,-0.00216581,-0.0307908,0.332769,1253.54,842.822)">
                <path d="M-2843.76,722.114L-2129.5,1408.64" style="fill:none;stroke:rgb(249,167,119);stroke-width:22.42px;"/>
            </g>
            <g transform="matrix(1.32298,0,0,1.00645,633.085,853.616)">
                <text x="994.685px" y="305.775px" style="font-family:'OpenSans-SemiBold', 'Open Sans', sans-serif;font-weight:600;font-size:24.631px;fill:rgb(51,51,51);">(image ﬁles)</text>
            </g>
            <g transform="matrix(1.32298,0,0,1.00645,345.759,853.616)">
                <text x="991.804px" y="305.775px" style="font-family:'OpenSans-SemiBold', 'Open Sans', sans-serif;font-weight:600;font-size:24.631px;fill:rgb(51,51,51);">(stylesheets)</text>
            </g>
            <g transform="matrix(1.32298,0,0,1.00645,-176.472,220.431)">
                <text x="1019.19px" y="305.775px" style="font-family:'OpenSans-SemiBold', 'Open Sans', sans-serif;font-weight:600;font-size:24.631px;fill:rgb(216,120,67);">build.sh</text>
            </g>
            <g transform="matrix(1.32298,0,0,1.00645,53.2981,214.827)">
                <text x="989.218px" y="305.775px" style="font-family:'OpenSans-SemiBold', 'Open Sans', sans-serif;font-weight:600;font-size:24.631px;fill:rgb(216,120,67);">package.json</text>
            </g>
            <g transform="matrix(1.32298,0,0,1.00645,-834.561,214.827)">
                <text x="1009.88px" y="305.775px" style="font-family:'OpenSans-SemiBold', 'Open Sans', sans-serif;font-weight:600;font-size:24.631px;fill:rgb(216,120,67);">.gitignore</text>
            </g>
            <g transform="matrix(1.32298,0,0,1.00645,-618.756,214.827)">
                <text x="1025px" y="305.775px" style="font-family:'OpenSans-SemiBold', 'Open Sans', sans-serif;font-weight:600;font-size:24.631px;fill:rgb(216,120,67);">.ignore</text>
            </g>
            <g transform="matrix(1.32298,0,0,1.00645,-856.092,726.856)">
                <text x="1016.98px" y="305.775px" style="font-family:'OpenSans-SemiBold', 'Open Sans', sans-serif;font-weight:600;font-size:24.631px;fill:rgb(216,120,67);">style.css</text>
            </g>
            <g transform="matrix(1.32298,0,0,1.00645,-399.189,220.431)">
                <text x="1007.46px" y="305.775px" style="font-family:'OpenSans-SemiBold', 'Open Sans', sans-serif;font-weight:600;font-size:24.631px;fill:rgb(216,120,67);">build.cmd</text>
            </g>
            <g transform="matrix(3.49137,0,0,2.65605,-2337.17,-5740.58)">
                <text x="867px" y="2643.61px" style="font-family:'OpenSans-SemiBold', 'Open Sans', sans-serif;font-weight:600;font-size:11.333px;fill:rgb(216,120,67);">services.js</text>
            </g>
        </g>
    </g>
</svg>
